<svg width="164" height="30" viewBox="0 0 164 30" fill="none" xmlns="http://www.w3.org/2000/svg">
<g clip-path="url(#clip0_460_21369)">
<path d="M29.7435 4.12959L20.0264 4.99622C18.3421 4.01896 16.6763 3.63174 14.918 3.63174C14.4553 3.63174 13.974 3.66862 13.4928 3.76081L3.33147 0.0177274C2.92428 -0.129783 2.62814 0.404943 2.9798 0.663087L9.21727 5.47563C7.90315 6.28693 6.66306 7.35639 5.57104 8.57335C3.72016 10.6938 1.38805 16.5574 0.2405 19.5998C-0.240729 20.9089 -0.000114823 22.3656 0.888308 23.4351C2.96129 25.9427 7.25534 29.9993 15.5103 29.9993C23.0804 29.9993 26.9117 26.6065 28.707 24.1357C29.7065 22.7528 30.0027 21.0011 29.5029 19.3785C28.6885 16.6311 26.9672 11.8739 24.1724 8.61023C24.0798 8.4996 23.9688 8.38896 23.8762 8.27833L29.9286 4.70119C30.2248 4.55368 30.0767 4.11115 29.7435 4.12959Z" fill="#6D6D6D"/>
<path d="M19.6013 21.7948C18.8794 22.0529 17.2506 22.4401 15.4368 21.4997C15.3442 21.4444 15.2517 21.5735 15.3257 21.6472C15.8995 22.2557 16.9175 23.3436 17.5468 23.8599C17.6764 23.9705 17.8799 23.9521 17.991 23.823L19.7123 21.9238C19.7864 21.8869 19.7123 21.7763 19.6013 21.7948Z" fill="white"/>
<path d="M26.3195 13.9213C25.394 11.9299 24.0244 10.0676 21.9329 9.84636C21.5627 9.80948 21.174 9.88323 20.8594 10.0861L18.5828 11.4321C18.009 11.764 17.3057 11.7271 16.7874 11.3215L14.807 9.79104C14.1407 9.27475 13.3818 8.90597 12.5674 8.72159C9.18032 7.92871 6.88523 9.69884 5.1454 13.0178C3.4796 16.1893 4.40505 20.7622 8.49549 21.8316C12.808 22.9748 15.6584 18.1992 16.8059 16.6134C17.0281 16.3 17.4723 16.3 17.6944 16.6134C19.4712 19.0105 21.8403 21.5735 24.3946 21.0572C27.7632 20.3749 27.356 16.1709 26.3195 13.9213ZM13.826 16.4475C12.9931 17.0006 11.9381 16.8716 11.3088 15.9312C10.6795 14.9908 10.9572 13.9582 11.7901 13.4051C12.623 12.8519 13.678 12.981 14.3073 13.9213C14.9366 14.8617 14.6589 15.8943 13.826 16.4475ZM22.6547 16.6134C21.8218 17.1666 20.7668 17.0375 20.1375 16.0971C19.5082 15.1567 19.7859 14.1242 20.6188 13.571C21.4517 13.0178 22.5067 13.1469 23.136 14.0873C23.7653 15.0277 23.4876 16.0602 22.6547 16.6134Z" fill="white"/>
<path d="M17.6576 17.8304C17.4911 17.646 17.1764 17.646 17.0098 17.8488L15.196 19.9878C15.1034 20.0799 15.1219 20.2459 15.233 20.3196C15.6587 20.6147 16.6767 21.2785 17.6762 21.2785C18.6016 21.2785 19.4345 20.9281 19.8417 20.7253C19.9712 20.6515 20.0083 20.4856 19.9157 20.375L17.6576 17.8304Z" fill="white"/>
<path d="M38.2393 23.8967V9.58813H41.4228V15.802H51.9913V9.58813H55.1748V23.8967H51.9913V18.4757H41.4228V23.8967H38.2393Z" fill="#6D6D6D"/>
<path d="M64.2072 24.2469C62.0972 24.2469 60.3944 23.6938 59.1173 22.6059C57.8217 21.518 57.1924 20.0798 57.1924 18.2912C57.1924 16.5026 57.8402 15.0644 59.1173 13.9765C60.4129 12.8886 62.0972 12.3354 64.2072 12.3354C66.3357 12.3354 68.0385 12.8886 69.3342 13.9765C70.6298 15.0644 71.2591 16.5026 71.2591 18.2912C71.2591 20.0798 70.6113 21.518 69.3342 22.6059C68.0385 23.7122 66.3172 24.2469 64.2072 24.2469ZM64.2072 21.7946C65.4288 21.7946 66.4283 21.4811 67.1686 20.8358C67.909 20.1904 68.2977 19.3606 68.2977 18.3096C68.2977 17.2586 67.9275 16.392 67.1686 15.7651C66.4283 15.1197 65.4288 14.8063 64.2072 14.8063C62.9856 14.8063 62.0232 15.1382 61.2643 15.7835C60.524 16.4289 60.1353 17.2771 60.1353 18.3281C60.1353 19.3791 60.5055 20.2088 61.2643 20.8542C62.0047 21.4811 62.9856 21.7946 64.2072 21.7946Z" fill="#6D6D6D"/>
<path d="M79.6994 24.2469C77.5894 24.2469 75.8866 23.6938 74.6095 22.6059C73.3139 21.518 72.6846 20.0798 72.6846 18.2912C72.6846 16.5026 73.3324 15.0644 74.6095 13.9765C75.9051 12.8886 77.5894 12.3354 79.6994 12.3354C81.8279 12.3354 83.5307 12.8886 84.8263 13.9765C86.122 15.0644 86.7513 16.5026 86.7513 18.2912C86.7513 20.0798 86.1035 21.518 84.8263 22.6059C83.5307 23.7122 81.8279 24.2469 79.6994 24.2469ZM79.6994 21.7946C80.921 21.7946 81.9205 21.4811 82.6608 20.8358C83.4012 20.1904 83.7899 19.3606 83.7899 18.3096C83.7899 17.2586 83.4197 16.392 82.6608 15.7651C81.9205 15.1197 80.921 14.8063 79.6994 14.8063C78.4778 14.8063 77.5154 15.1382 76.7565 15.7835C76.0162 16.4289 75.6275 17.2771 75.6275 18.3281C75.6275 19.3791 75.9976 20.2088 76.7565 20.8542C77.5154 21.4811 78.4963 21.7946 79.6994 21.7946Z" fill="#6D6D6D"/>
<path d="M92.6371 24.1179C91.2304 24.1179 90.4345 23.4726 90.0273 22.8825C89.6016 22.2925 89.2685 21.5365 89.2685 19.877V15.0092H87.6582V12.7227H89.7312V9.58813H92.4705V12.7227H95.7095V15.0092H92.4705V19.1948C92.452 20.4486 92.6556 20.8911 92.9517 21.2046C93.4885 21.7393 95.1172 21.3706 95.7095 21.0018V23.4173C95.0062 23.8967 93.7846 24.1179 92.6371 24.1179Z" fill="#6D6D6D"/>
<path d="M103.816 24.2471C101.817 24.2471 99.818 23.952 97.8005 23.3804V20.8359C99.4848 21.4812 101.317 21.7947 103.298 21.7947C104.723 21.7947 105.741 21.7025 106.352 21.5181C106.962 21.3337 107.277 21.0203 107.277 20.5593C107.277 20.1352 106.944 19.8217 106.259 19.6558C105.574 19.4898 104.741 19.3792 103.76 19.3239C102.779 19.287 101.798 19.1948 100.817 19.0657C99.8365 18.9367 99.0036 18.6232 98.3188 18.1438C97.6339 17.646 97.3008 16.9637 97.3008 16.0602C97.3008 14.8432 97.8931 13.9213 99.0776 13.2944C100.262 12.6675 101.872 12.354 103.908 12.354C105.519 12.354 107.388 12.5568 109.517 12.9809V15.4333C107.684 15.0461 105.907 14.8432 104.242 14.8432C101.706 14.8432 100.429 15.2305 100.429 16.0049C100.429 16.3921 100.78 16.6687 101.465 16.8162C102.15 16.9637 102.983 17.0743 103.964 17.1481C104.945 17.2034 105.907 17.3141 106.888 17.4431C107.869 17.5906 108.702 17.9041 109.387 18.4204C110.072 18.9367 110.424 19.6373 110.424 20.5409C110.424 21.7947 109.831 22.7166 108.665 23.3251C107.499 23.952 105.889 24.2471 103.816 24.2471Z" fill="#6D6D6D"/>
<path d="M125.656 12.7227V23.915H122.158L122.602 19.3053H122.417C121.899 22.6243 120.048 24.2654 116.901 24.2654C115.291 24.2285 114.107 23.7122 113.348 22.6796C112.607 21.6655 112.219 19.9507 112.219 17.5721V12.7227H115.402V17.2033C115.402 18.8812 115.643 20.0798 116.124 20.7989C116.605 21.518 117.383 21.8683 118.475 21.8683C119.696 21.8683 120.659 21.3152 121.362 20.2088C122.084 19.1025 122.436 17.6458 122.436 15.8019V12.7227H125.656Z" fill="#6D6D6D"/>
<path d="M129.987 11.6349C129.377 11.6349 128.895 11.4874 128.544 11.1739C128.192 10.8605 128.025 10.4179 128.025 9.82787C128.025 9.23783 128.192 8.77686 128.544 8.48184C128.895 8.18682 129.358 8.03931 129.987 8.03931C130.617 8.03931 131.098 8.18682 131.45 8.48184C131.801 8.77686 131.986 9.21939 131.986 9.82787C131.986 11.0264 131.32 11.6349 129.987 11.6349ZM128.433 23.8967V12.7228H131.616V23.9152H128.433V23.8967Z" fill="#6D6D6D"/>
<path d="M149.588 24.2469C147.552 24.2469 145.923 23.6938 144.683 22.6059C143.443 21.518 142.832 20.0798 142.832 18.2912C142.832 16.5026 143.443 15.0644 144.683 13.9765C145.923 12.8886 147.552 12.3354 149.588 12.3354C151.587 12.3354 153.215 12.7964 154.456 13.7368C155.696 14.6772 156.325 15.8941 156.362 17.4246V19.25H145.904C146.09 20.1535 146.552 20.8173 147.33 21.223C148.107 21.6286 149.236 21.8315 150.735 21.8315C152.716 21.8315 153.604 21.518 154.567 21.1677C154.715 21.1123 155.77 20.6514 155.862 20.6145V23.159C154.733 23.5831 153.752 23.8782 152.919 24.0257C152.068 24.1732 150.957 24.2469 149.588 24.2469ZM145.812 17.7196L153.308 17.5352C153.271 16.5579 152.938 15.8388 152.346 15.4147C151.753 14.9906 150.828 14.7694 149.588 14.7694C148.385 14.7694 147.496 14.9906 146.885 15.4516C146.275 15.931 145.923 16.687 145.812 17.7196Z" fill="#6D6D6D"/>
<path d="M162.026 15.5625C162.248 15.3781 162.341 15.1384 162.341 14.8249C162.341 14.5115 162.23 14.2718 162.026 14.0874C161.804 13.903 161.508 13.8108 161.138 13.8108H159.935V16.7794H160.434V15.8206H161.119C161.156 15.8206 161.193 15.8206 161.249 15.8206L161.878 16.7794H162.396L161.711 15.7284C161.822 15.6916 161.934 15.6362 162.026 15.5625ZM161.101 15.415H160.434V14.2349H161.101C161.341 14.2349 161.526 14.2902 161.656 14.3824C161.785 14.493 161.859 14.6221 161.859 14.8249C161.859 15.0093 161.785 15.1568 161.656 15.2675C161.526 15.3597 161.341 15.415 161.101 15.415Z" fill="#6D6D6D"/>
<path d="M163.433 14.2532C163.303 13.9398 163.118 13.6632 162.878 13.4235C162.637 13.1838 162.359 12.9994 162.045 12.8703C161.73 12.7412 161.378 12.6675 161.008 12.6675C160.638 12.6675 160.286 12.7412 159.972 12.8703C159.657 12.9994 159.361 13.1838 159.139 13.4235C158.898 13.6632 158.713 13.9398 158.583 14.2532C158.454 14.5667 158.38 14.917 158.38 15.2858C158.38 15.6546 158.454 15.9865 158.583 16.3184C158.713 16.6318 158.898 16.9084 159.139 17.1481C159.379 17.3878 159.657 17.5722 159.972 17.7013C160.286 17.8304 160.638 17.9041 161.008 17.9041C161.378 17.9041 161.73 17.8304 162.045 17.7013C162.359 17.5722 162.637 17.3878 162.878 17.1481C163.118 16.9084 163.303 16.6318 163.433 16.2999C163.562 15.9865 163.636 15.6361 163.636 15.2674C163.636 14.917 163.581 14.5667 163.433 14.2532ZM163.118 16.1893C163.007 16.4659 162.841 16.7056 162.637 16.9269C162.433 17.1297 162.193 17.2956 161.897 17.4247C161.619 17.5353 161.323 17.6091 160.99 17.6091C160.656 17.6091 160.36 17.5538 160.083 17.4431C159.805 17.3325 159.564 17.1666 159.361 16.9637C159.157 16.7609 158.991 16.5212 158.88 16.2262C158.769 15.9496 158.713 15.6546 158.713 15.3227C158.713 14.9908 158.769 14.6958 158.88 14.4192C158.991 14.1426 159.157 13.9029 159.361 13.6816C159.564 13.4788 159.805 13.3128 160.083 13.1838C160.36 13.0731 160.675 13.0178 160.99 13.0178C161.323 13.0178 161.619 13.0731 161.897 13.1838C162.174 13.2944 162.415 13.4604 162.618 13.6632C162.822 13.866 162.989 14.1057 163.1 14.3823C163.211 14.6589 163.266 14.9539 163.266 15.2858C163.285 15.6177 163.229 15.9127 163.118 16.1893Z" fill="#6D6D6D"/>
<path d="M138.743 24.1179C137.336 24.1179 136.54 23.4726 136.133 22.8825C135.707 22.2925 135.374 21.5365 135.374 19.877V15.0092H133.764V12.7227H135.837V9.58813H138.576V12.7227H141.815V15.0092H138.576V19.1948C138.557 20.4486 138.761 20.8911 139.057 21.2046C139.594 21.7393 141.223 21.3706 141.815 21.0018V23.4173C141.112 23.8967 139.872 24.1179 138.743 24.1179Z" fill="#6D6D6D"/>
</g>
<defs>
<clipPath id="clip0_460_21369">
<rect width="163.636" height="30" fill="white"/>
</clipPath>
</defs>
</svg>
