<svg width="153" height="30" viewBox="0 0 153 30" fill="none" xmlns="http://www.w3.org/2000/svg">
<g clip-path="url(#clip0_460_21345)">
<path d="M17.6949 5.63738L8.84746 11.2748L17.6949 16.9121L8.84746 22.5495L0 16.8817L8.84746 11.2443L0 5.63738L8.84746 0L17.6949 5.63738ZM8.8017 24.3626L17.6492 18.7252L26.4966 24.3626L17.6492 30L8.8017 24.3626ZM17.6949 16.8817L26.5424 11.2443L17.6949 5.63738L26.4966 0L35.3441 5.63738L26.4966 11.2748L35.3441 16.9121L26.4966 22.5495L17.6949 16.8817Z" fill="#6D6D6D"/>
<path d="M42.2852 5.63743H49.4394C54.0004 5.63743 57.7682 8.27329 57.7682 14.2916V15.5562C57.7682 21.6202 54.2445 24.3474 49.5767 24.3474H42.2852V5.63743ZM46.2818 9.03509V20.9345H49.3479C51.9411 20.9345 53.6801 19.2433 53.6801 15.48V14.4896C53.6801 10.7263 51.8496 9.03509 49.2106 9.03509H46.2818ZM59.8885 9.21793H63.0919L63.6106 12.7375C64.2207 10.3454 65.7767 9.06557 68.5987 9.06557H69.5902V13.1031H67.9428C64.6936 13.1031 63.9004 14.2306 63.9004 17.4302V24.3931H59.9496V9.21793H59.8885ZM70.3834 17.1103V16.6836C70.3834 11.61 73.6326 8.83702 78.0563 8.83702C82.5716 8.83702 85.7292 11.61 85.7292 16.6836V17.1103C85.7292 22.0925 82.6631 24.774 78.0563 24.774C73.1597 24.7283 70.3834 22.1077 70.3834 17.1103ZM81.6868 17.0645V16.6836C81.6868 13.865 80.2682 12.1737 78.0106 12.1737C75.7987 12.1737 74.3343 13.7278 74.3343 16.6836V17.0645C74.3343 19.7918 75.7529 21.3459 78.0106 21.3459C80.2682 21.3002 81.6868 19.7918 81.6868 17.0645ZM87.8038 9.21793H91.0987L91.4801 12.0823C92.2733 10.1626 93.9665 8.83702 96.4682 8.83702C100.328 8.83702 102.875 11.61 102.875 16.7446V17.1712C102.875 22.1534 100.053 24.7893 96.4682 24.7893C94.0733 24.7893 92.4258 23.7075 91.6173 21.9706V29.6344H87.758L87.8038 9.21793ZM98.8631 17.0645V16.7294C98.8631 13.7126 97.3072 12.2194 95.2326 12.2194C93.0207 12.2194 91.5563 13.9107 91.5563 16.7294V17.0188C91.5563 19.7004 92.975 21.3916 95.1868 21.3916C97.4597 21.3459 98.8631 19.8985 98.8631 17.0645ZM108.717 21.5897L108.382 24.3627H104.995V4.14429H108.855V11.8995C109.709 9.91879 111.402 8.83702 113.797 8.83702C117.428 8.88273 120.112 11.3815 120.112 16.4094V16.8817C120.112 21.9096 117.565 24.7893 113.705 24.7893C111.158 24.7283 109.511 23.5551 108.717 21.5897ZM116.055 16.8817V16.5008C116.055 13.7278 114.544 12.1737 112.424 12.1737C110.258 12.1737 108.748 13.9107 108.748 16.5465V16.8817C108.748 19.7004 110.212 21.3459 112.378 21.3459C114.697 21.3459 116.055 19.8985 116.055 16.8817ZM121.805 17.1103V16.6836C121.805 11.61 125.055 8.83702 129.478 8.83702C133.994 8.83702 137.151 11.61 137.151 16.6836V17.1103C137.151 22.0925 134.039 24.774 129.478 24.774C124.582 24.7283 121.805 22.1077 121.805 17.1103ZM133.139 17.0645V16.6836C133.139 13.865 131.721 12.1737 129.463 12.1737C127.251 12.1737 125.787 13.7278 125.787 16.6836V17.0645C125.787 19.7918 127.205 21.3459 129.463 21.3459C131.736 21.3002 133.139 19.7918 133.139 17.0645ZM142.322 16.5008L136.999 9.21793H141.56L144.626 13.7735L147.738 9.21793H152.253L146.853 16.4551L152.543 24.3627H148.073L144.595 19.3347L141.209 24.3627H136.541L142.322 16.5008Z" fill="#6D6D6D"/>
</g>
<defs>
<clipPath id="clip0_460_21345">
<rect width="152.542" height="30" fill="white"/>
</clipPath>
</defs>
</svg>
