<svg width="124" height="30" viewBox="0 0 124 30" fill="none" xmlns="http://www.w3.org/2000/svg">
<g clip-path="url(#clip0_460_21348)">
<path d="M121.954 28.0634C122.03 28.0642 122.105 28.0494 122.175 28.02C122.245 27.9907 122.309 27.9473 122.361 27.8927C122.414 27.838 122.454 27.7733 122.48 27.7024C122.507 27.6315 122.518 27.556 122.513 27.4807C122.513 27.0674 122.262 26.8699 121.747 26.8699H120.915V29.0338H121.228V28.0905H121.613L121.622 28.102L122.219 29.0338H122.553L121.911 28.0694L121.954 28.0634ZM121.592 27.8467H121.229V27.1151H121.689C121.927 27.1151 122.198 27.1537 122.198 27.4628C122.198 27.8182 121.924 27.8467 121.59 27.8467" fill="#6D6D6D"/>
<path d="M0 4.40259H4.6207V21.1187H13.175V25.3538H0V4.40259Z" fill="#6D6D6D"/>
<path d="M15.2174 11.1483H19.6564V25.346H15.2174V11.1483ZM17.4369 4.08984C17.9461 4.08993 18.444 4.24001 18.8674 4.52108C19.2908 4.80216 19.6208 5.20161 19.8156 5.66894C20.0104 6.13626 20.0613 6.65048 19.9619 7.14655C19.8625 7.64262 19.6172 8.09828 19.2571 8.4559C18.8969 8.81353 18.4381 9.05706 17.9386 9.1557C17.4391 9.25434 16.9214 9.20367 16.4509 9.01009C15.9803 8.8165 15.5782 8.4887 15.2953 8.06814C15.0123 7.64757 14.8613 7.15313 14.8613 6.64733C14.8613 6.31143 14.928 5.97883 15.0574 5.66851C15.1868 5.3582 15.3765 5.07624 15.6157 4.83875C15.8549 4.60126 16.1388 4.41289 16.4513 4.28439C16.7638 4.15589 17.0987 4.08978 17.4369 4.08984Z" fill="#6D6D6D"/>
<path d="M38.2256 4.39941H42.6646V16.9205L47.6954 11.1419H53.1378L47.3116 17.7149L53.0153 25.352H47.436L42.7238 18.334H42.6655V25.3511H38.2265L38.2256 4.39941Z" fill="#6D6D6D"/>
<path d="M22.1182 11.1497H26.381V13.0899H26.4415C26.8673 12.3654 27.4833 11.7694 28.2235 11.3655C28.9638 10.9615 29.8007 10.7649 30.6447 10.7965C35.1461 10.7965 35.9747 13.7379 35.9747 17.5592V25.3451H31.5357V18.4423C31.5357 16.7946 31.5052 14.6766 29.2238 14.6766C26.9164 14.6766 26.5604 16.4708 26.5604 18.3225V25.3432H22.1214L22.1182 11.1497Z" fill="#6D6D6D"/>
<path d="M62.4857 16.5958C62.4942 16.2381 62.4295 15.8824 62.2955 15.5503C62.1615 15.2182 61.961 14.9166 61.7062 14.6637C61.4514 14.4108 61.1476 14.2119 60.8131 14.079C60.4786 13.9462 60.1205 13.8822 59.7603 13.8909C58.9847 13.8429 58.2212 14.0996 57.6344 14.6056C57.0476 15.1116 56.6845 15.8263 56.6235 16.5958H62.4857ZM66.2459 22.8873C65.5082 23.7757 64.5809 24.49 63.531 24.9786C62.4811 25.4671 61.335 25.7177 60.1756 25.712C55.7366 25.712 52.1826 22.7693 52.1826 18.2123C52.1826 13.6553 55.7361 10.7139 60.1756 10.7139C64.3246 10.7139 66.9265 13.653 66.9265 18.2123V19.5946H56.6235C56.7517 20.3785 57.1609 21.09 57.7757 21.5979C58.3905 22.1059 59.1694 22.3761 59.9689 22.3587C60.6007 22.3548 61.2215 22.194 61.7748 21.891C62.3281 21.588 62.7963 21.1523 63.1367 20.6237L66.2459 22.8873Z" fill="#6D6D6D"/>
<path d="M76.1794 14.5804C73.9599 14.5804 72.6282 16.0522 72.6282 18.1968C72.6282 20.3415 73.9594 21.8147 76.1794 21.8147C78.3994 21.8147 79.7338 20.3451 79.7338 18.1968C79.7338 16.0485 78.4017 14.5804 76.1794 14.5804ZM83.8205 25.3435H79.7338V23.4606H79.6733C79.1606 24.1455 78.4956 24.7035 77.7301 25.0913C76.9647 25.479 76.1194 25.686 75.2602 25.6961C70.995 25.6961 68.1855 22.639 68.1855 18.3158C68.1855 14.3452 70.6718 10.6994 74.7589 10.6994C76.596 10.6994 78.312 11.1985 79.3186 12.5822H79.3768V4.39819H83.82L83.8205 25.3435Z" fill="#6D6D6D"/>
<path d="M113.788 25.3516H109.349V18.4474C109.349 16.8011 109.32 14.6817 107.04 14.6817C104.729 14.6817 104.375 16.4755 104.375 18.3276V25.3511H99.9358V11.1534H104.197V13.0937H104.257C104.683 12.3695 105.3 11.7737 106.04 11.3698C106.78 10.966 107.617 10.7691 108.461 10.8002C112.961 10.8002 113.79 13.7393 113.79 17.5629L113.788 25.3516ZM94.9271 9.21266C94.4176 9.21275 93.9196 9.0628 93.4959 8.78175C93.0722 8.50071 92.742 8.1012 92.5469 7.63374C92.3519 7.16629 92.3008 6.65189 92.4001 6.1556C92.4994 5.6593 92.7446 5.20339 93.1048 4.84553C93.465 4.48767 93.924 4.24392 94.4237 4.14511C94.9233 4.04631 95.4413 4.09688 95.912 4.29044C96.3828 4.48399 96.7851 4.81183 97.0683 5.23251C97.3514 5.65319 97.5026 6.1478 97.5027 6.65381C97.5027 6.98978 97.4361 7.32247 97.3067 7.6329C97.1773 7.94332 96.9877 8.22539 96.7485 8.463C96.5093 8.70061 96.2254 8.88911 95.9129 9.01774C95.6004 9.14637 95.2654 9.2126 94.9271 9.21266ZM97.1466 25.3516H92.703V11.1534H97.1466V25.3516ZM116.001 0.001783H90.4724C89.893 -0.00471121 89.3346 0.217529 88.9201 0.619669C88.5056 1.02181 88.2688 1.57094 88.2617 2.14641V27.606C88.2685 28.1817 88.5052 28.7312 88.9197 29.1338C89.3342 29.5363 89.8927 29.759 90.4724 29.7529H116.001C116.582 29.7601 117.142 29.5381 117.558 29.1355C117.974 28.733 118.213 28.1828 118.221 27.606V2.14457C118.212 1.56797 117.974 1.01821 117.558 0.616076C117.142 0.213946 116.582 -0.00765944 116.001 -5.46843e-05" fill="#6D6D6D"/>
<path d="M121.63 25.906C121.09 25.9112 120.574 26.1285 120.194 26.5105C119.815 26.8926 119.604 27.4082 119.606 27.9446C119.609 28.481 119.825 28.9945 120.208 29.3729C120.591 29.7513 121.109 29.9637 121.649 29.9637C122.189 29.9637 122.708 29.7513 123.09 29.3729C123.473 28.9945 123.69 28.481 123.692 27.9446C123.695 27.4082 123.483 26.8926 123.104 26.5105C122.725 26.1285 122.209 25.9112 121.669 25.906H121.63ZM121.63 29.7314C121.275 29.7373 120.927 29.6387 120.63 29.4481C120.332 29.2575 120.098 28.9835 119.957 28.6607C119.816 28.3379 119.774 27.9808 119.837 27.6346C119.901 27.2884 120.066 26.9686 120.312 26.7157C120.559 26.4628 120.875 26.2881 121.221 26.2137C121.567 26.1393 121.928 26.1686 122.258 26.2978C122.587 26.4271 122.871 26.6504 123.073 26.9397C123.274 27.229 123.385 27.5711 123.391 27.923C123.391 27.9331 123.391 27.9427 123.391 27.9528C123.401 28.4143 123.226 28.8609 122.904 29.1943C122.583 29.5276 122.141 29.7205 121.676 29.7305H121.63" fill="#6D6D6D"/>
</g>
<defs>
<clipPath id="clip0_460_21348">
<rect width="123.692" height="30" fill="white"/>
</clipPath>
</defs>
</svg>
