<svg width="113" height="30" viewBox="0 0 113 30" fill="none" xmlns="http://www.w3.org/2000/svg">
<g clip-path="url(#clip0_460_21358)">
<path d="M111.439 5.18678C111.042 4.73946 110.513 4.51553 109.796 4.51553C109.079 4.51553 108.534 4.75426 108.151 5.24587C107.771 5.72122 107.573 6.43464 107.573 7.37255V14.1572C106.691 13.2045 105.777 12.5201 104.85 12.0584C104.269 11.7771 103.587 11.5695 102.826 11.4639C102.382 11.4047 101.927 11.374 101.426 11.374C99.0964 11.374 97.2115 12.1778 95.7643 13.7843C94.3335 15.3919 93.6191 17.6237 93.6191 20.4933C93.6191 21.8491 93.8018 23.1128 94.165 24.2742C94.5315 25.4345 95.0456 26.4451 95.749 27.3092C96.4491 28.1721 97.2849 28.8248 98.2442 29.3034C99.2025 29.7633 100.237 29.9998 101.364 29.9998C101.883 29.9998 102.367 29.9571 102.826 29.8685C103.13 29.8213 103.418 29.7479 103.708 29.6582C104.423 29.4216 105.092 29.0799 105.701 28.6485C106.325 28.2007 106.951 27.6214 107.573 26.9215V27.3684C107.573 28.217 107.786 28.8554 108.197 29.3165C108.623 29.7633 109.156 29.9998 109.796 29.9998C110.45 29.9998 110.983 29.7786 111.393 29.3471C111.803 28.9004 112.017 28.2466 112.017 27.3684V7.13493C112.017 6.28628 111.819 5.6314 111.439 5.18678ZM106.706 23.9023C106.293 24.7653 105.747 25.4049 105.079 25.821C104.393 26.2383 103.646 26.4451 102.826 26.4451H102.811C101.989 26.4451 101.243 26.2229 100.557 25.7914C99.873 25.3458 99.3239 24.6898 98.929 23.8274C98.5341 22.9491 98.3361 21.8934 98.3361 20.6434C98.3361 19.4683 98.5177 18.4269 98.8984 17.5492C99.2648 16.6567 99.7965 15.9712 100.467 15.4954C101.152 15.0037 101.913 14.7814 102.781 14.7814H102.826C103.632 14.7814 104.377 15.0196 105.063 15.4801C105.747 15.941 106.293 16.6124 106.706 17.4895C107.117 18.3672 107.314 19.4234 107.314 20.6434C107.314 21.952 107.117 23.0394 106.706 23.9023Z" fill="#6D6D6D"/>
<path d="M92.1701 24.0957C91.8836 23.8426 91.4865 23.7086 90.9986 23.7086C90.5578 23.7086 90.2231 23.8126 89.9791 24.0058C89.3862 24.542 88.9147 24.9712 88.5482 25.2854C88.1839 25.5834 87.7727 25.8812 87.3307 26.1627C86.9062 26.4299 86.449 26.6402 85.995 26.7595C85.5214 26.892 85.0182 26.9511 84.4559 26.9511C84.3333 26.9511 84.2109 26.9511 84.1058 26.9357C83.4057 26.892 82.7515 26.697 82.1586 26.3401C81.4564 25.9382 80.9094 25.3458 80.4828 24.5715C80.0715 23.7677 79.8604 22.8462 79.845 21.8053H89.0208C90.2525 21.8053 91.2108 21.6251 91.8836 21.2971C92.5672 20.9407 92.9021 20.1971 92.9021 19.0517C92.9021 17.8016 92.5672 16.5811 91.9131 15.3777C91.2579 14.1862 90.2842 13.2045 88.9606 12.4461C87.649 11.6884 86.0826 11.3154 84.2426 11.3154H84.1058C82.7515 11.3296 81.5023 11.5541 80.392 11.9703C79.2358 12.4166 78.261 13.0561 77.4537 13.8741C76.6792 14.707 76.07 15.704 75.6598 16.8643C75.2496 18.0261 75.0352 19.2899 75.0352 20.6429C75.0352 23.5306 75.873 25.7914 77.5468 27.4723C79.1275 29.0646 81.3208 29.898 84.1058 29.9857C84.2579 29.9998 84.4242 29.9998 84.5927 29.9998C85.901 29.9998 87.0736 29.8377 88.0921 29.4961C89.1126 29.1533 89.9484 28.735 90.6212 28.2313C91.2874 27.7101 91.7906 27.1756 92.1231 26.6236C92.46 26.074 92.6274 25.5834 92.6274 25.1804C92.6274 24.7203 92.4765 24.3481 92.1701 24.0957ZM81.2147 15.6892C81.9585 14.9008 82.9189 14.5142 84.0895 14.5142H84.1058C85.3223 14.5142 86.3122 14.9008 87.0572 15.6739C87.8055 16.4481 88.2442 17.6237 88.3524 19.2001H79.845C79.996 17.6533 80.4533 16.4766 81.2147 15.6892Z" fill="#6D6D6D"/>
<path d="M72.2195 23.7086C71.7634 23.7086 71.4276 23.8126 71.1857 24.0058C70.6061 24.542 70.1203 24.9722 69.7538 25.2854C69.3895 25.5834 68.9936 25.8812 68.5517 26.1627C68.1119 26.4299 67.6689 26.6402 67.1974 26.7595C66.7401 26.892 66.2227 26.9511 65.6604 26.9511C65.539 26.9511 65.4175 26.9511 65.3115 26.9357C64.6102 26.892 63.9551 26.697 63.3622 26.3401C62.6784 25.9382 62.1139 25.3458 61.7049 24.5715C61.2771 23.7677 61.0638 22.8462 61.049 21.8053H70.2407C71.4593 21.8053 72.4175 21.6251 73.1023 21.2971C73.7729 20.9407 74.1066 20.1971 74.1066 19.0517C74.1066 17.8016 73.7871 16.5811 73.1329 15.3777C72.4777 14.1862 71.4889 13.2045 70.1826 12.4461C68.8689 11.6884 67.2892 11.3154 65.4646 11.3154H65.3115C63.9551 11.3296 62.7222 11.5541 61.5977 11.9703C60.4397 12.4166 59.4661 13.0561 58.6747 13.8741C57.8833 14.707 57.2739 15.704 56.8648 16.8643C56.4524 18.0261 56.2402 19.2899 56.2402 20.6434C56.2402 23.5306 57.0923 25.7914 58.7682 27.4723C60.3483 29.0646 62.5264 29.898 65.3115 29.9857C65.4777 29.9998 65.6298 29.9998 65.7983 29.9998C67.1208 29.9998 68.2792 29.8377 69.2955 29.4961C70.3162 29.1533 71.154 28.735 71.8224 28.2313C72.5072 27.7101 72.994 27.1756 73.3299 26.6236C73.6657 26.074 73.8319 25.5834 73.8319 25.1804C73.8319 24.7203 73.681 24.3481 73.3922 24.0957C73.0881 23.8426 72.691 23.7086 72.2195 23.7086ZM62.4198 15.6892C63.1635 14.9008 64.1213 14.5142 65.2951 14.5142H65.3115C66.5279 14.5142 67.5169 14.9008 68.2639 15.6739C69.0231 16.4481 69.4497 17.6237 69.5722 19.2001H61.049C61.2175 17.6533 61.6742 16.4766 62.4198 15.6892Z" fill="#6D6D6D"/>
<path d="M9.77734 26.9511V16.0024C10.0968 16.0303 10.4014 16.0451 10.7208 16.0451C12.2424 16.0451 13.6749 15.6438 14.8908 14.9298V26.9511C14.8908 27.9772 14.6469 28.7361 14.1759 29.2431C13.7056 29.7479 13.0799 29.9998 12.319 29.9998C11.573 29.9998 10.9796 29.7479 10.4917 29.2278C10.0213 28.7219 9.77734 27.9619 9.77734 26.9511Z" fill="#6D6D6D"/>
<path d="M53.9874 5.18678C53.5903 4.73946 53.0445 4.51553 52.3586 4.51553C51.6437 4.51553 51.0946 4.75426 50.7145 5.24587C50.3212 5.72122 50.1363 6.43464 50.1363 7.37255V14.1572C49.2536 13.2045 48.3406 12.5201 47.4119 12.0584C46.8201 11.7771 46.149 11.5695 45.3892 11.4639C44.9484 11.4047 44.4912 11.374 43.9896 11.374C41.6596 11.374 39.7578 12.1778 38.328 13.7843C36.8972 15.3919 36.1807 17.6237 36.1807 20.4933C36.1807 21.8491 36.365 23.1128 36.7129 24.2742C37.0794 25.4345 37.6116 26.4451 38.3134 27.3092C39.0118 28.1721 39.8491 28.8248 40.8096 29.3034C41.7678 29.7633 42.8011 29.9998 43.9273 29.9998C44.4294 29.9998 44.9173 29.9571 45.3892 29.8685C45.6928 29.8213 45.9827 29.7479 46.272 29.6582C46.9869 29.4216 47.6564 29.0799 48.2651 28.6485C48.8887 28.2007 49.4986 27.6214 50.1363 26.9215V27.3684C50.1363 28.217 50.3507 28.8554 50.761 29.3165C51.1722 29.7633 51.7197 29.9998 52.3586 29.9998C52.9811 29.9998 53.5307 29.7786 53.9432 29.3471C54.3534 28.9004 54.5503 28.2466 54.5503 27.3684V7.13493C54.5503 6.28628 54.3692 5.6314 53.9874 5.18678ZM49.2683 23.9023C48.8586 24.7653 48.3101 25.4049 47.6269 25.821C46.9563 26.2383 46.1955 26.4451 45.3892 26.4451H45.3729C44.5536 26.4451 43.8059 26.2229 43.1216 25.7914C42.4215 25.3458 41.8887 24.6898 41.4922 23.8274C41.0973 22.9491 40.8993 21.8934 40.8993 20.6434C40.8993 19.4683 41.0836 18.4269 41.4474 17.5492C41.828 16.6567 42.345 15.9712 43.0297 15.4954C43.7002 15.0037 44.4747 14.7814 45.3285 14.7814H45.3892C46.1955 14.7814 46.941 15.0196 47.61 15.4801C48.3101 15.941 48.8586 16.6124 49.2683 17.4895C49.6632 18.3672 49.8787 19.4234 49.8787 20.6434C49.8787 21.952 49.6632 23.0394 49.2683 23.9023Z" fill="#6D6D6D"/>
<path d="M22.3934 13.8741V14.4403C23.2301 13.3687 24.1289 12.5951 25.103 12.0886C26.0924 11.5985 27.2181 11.3439 28.4963 11.3439C29.7291 11.3439 30.84 11.6122 31.8147 12.1334C32.7888 12.6536 33.5037 13.3983 33.991 14.3659C34.311 14.9298 34.509 15.5414 34.5992 16.1952C34.6911 16.8341 34.736 17.6664 34.736 18.6793V27.2052C34.736 28.1272 34.509 28.8248 34.0812 29.2869C33.6562 29.7633 33.0912 29.9998 32.4065 29.9998C31.708 29.9998 31.1451 29.7633 30.7027 29.2716C30.2608 28.7952 30.0496 28.0977 30.0496 27.2052V19.5708C30.0496 18.0546 29.8358 16.8938 29.4091 16.0905C28.9831 15.2878 28.1151 14.8854 26.8384 14.8854C26.0011 14.8854 25.2392 15.1395 24.5538 15.6142C23.8707 16.1059 23.3521 16.7739 23.0317 17.6373C22.804 18.3224 22.6964 19.586 22.6964 21.4773V27.2052C22.6964 28.1414 22.471 28.8248 22.0291 29.3034C21.5871 29.7633 21.0249 29.9998 20.3236 29.9998C19.6405 29.9998 19.0902 29.7633 18.6494 29.2716C18.2085 28.7952 17.9941 28.0977 17.9941 27.2052V13.948C17.9941 13.0715 18.1922 12.4166 18.5887 11.9999C18.9694 11.5695 19.501 11.3439 20.1874 11.3439C20.5982 11.3439 20.9625 11.4326 21.2966 11.6286C21.6336 11.8202 21.906 12.1039 22.1039 12.4905C22.3014 12.8759 22.3934 13.3386 22.3934 13.8741Z" fill="#6D6D6D"/>
<path d="M9.80644 0.70847C12.9722 -0.408526 16.5794 -0.348757 19.2879 1.94209C19.7917 2.4032 20.3687 2.98362 20.5973 3.66799C20.8719 4.53088 19.6396 3.57772 19.4706 3.46042C18.5884 2.89435 17.705 2.41856 16.7173 2.09056C11.391 0.484532 6.35128 3.38608 3.21832 7.89398C1.90999 9.88755 1.05622 11.9841 0.356635 14.2898C0.281154 14.5438 0.219896 14.8718 0.0815373 15.0925C-0.055202 15.3476 0.021372 14.4108 0.021372 14.3796C0.126913 13.4285 0.326006 12.5059 0.569948 11.5833C2.01501 6.67292 5.21033 2.58217 9.80644 0.70847Z" fill="#6D6D6D"/>
<path d="M13.9312 12.8918C12.0294 13.844 9.69938 13.1015 8.74059 11.2415C7.76644 9.38094 8.52837 7.10534 10.4301 6.16799C12.333 5.21583 14.6631 5.95885 15.6207 7.81943C16.5949 9.67933 15.8341 11.9549 13.9312 12.8918Z" fill="#6D6D6D"/>
</g>
<defs>
<clipPath id="clip0_460_21358">
<rect width="112.017" height="30" fill="white"/>
</clipPath>
</defs>
</svg>
