<svg width="100" height="30" viewBox="0 0 100 30" fill="none" xmlns="http://www.w3.org/2000/svg">
<g clip-path="url(#clip0_460_21333)">
<path d="M24.2373 13.3233C19.4801 10.495 11.6331 10.235 7.09177 11.6148C6.36247 11.8362 5.5913 11.4241 5.37033 10.694C5.14935 9.96361 5.56061 9.19208 6.29039 8.97013C11.5036 7.3858 20.1697 7.69191 25.6463 10.9465C26.3024 11.3362 26.5176 12.1843 26.1287 12.8401C25.7395 13.4967 24.8917 13.7131 24.2373 13.3233ZM24.0815 17.5124C23.7479 18.0547 23.0398 18.2245 22.499 17.8918C18.5328 15.4512 12.485 14.7441 7.79277 16.17C7.18429 16.3541 6.54159 16.0106 6.35683 15.4026C6.17342 14.7934 6.51667 14.1512 7.12406 13.966C12.4843 12.3376 19.1477 13.1263 23.703 15.9288C24.2438 16.2623 24.4141 16.9716 24.0815 17.5124ZM22.2757 21.5356C22.0106 21.9708 21.4442 22.1074 21.011 21.842C17.5453 19.7216 13.1832 19.2425 8.04597 20.4174C7.55086 20.531 7.05755 20.2203 6.94458 19.7249C6.83121 19.2293 7.14024 18.7355 7.63644 18.6224C13.2582 17.3358 18.0806 17.8895 21.9706 20.2692C22.4043 20.5343 22.5409 21.1016 22.2757 21.5356ZM15.5074 0.22525C7.35674 0.22525 0.749023 6.83993 0.749023 14.9997C0.749023 23.1601 7.35674 29.7747 15.5074 29.7747C23.6584 29.7747 30.2657 23.1601 30.2657 14.9997C30.2657 6.83993 23.6584 0.22525 15.5074 0.22525Z" fill="#6D6D6D"/>
<path d="M40.9015 13.8647C38.3534 13.2564 37.8996 12.8294 37.8996 11.9325C37.8996 11.0847 38.6969 10.5145 39.8822 10.5145C41.0312 10.5145 42.1704 10.9476 43.3651 11.8393C43.4012 11.8663 43.4465 11.8771 43.4911 11.87C43.5357 11.8633 43.575 11.839 43.6013 11.8019L44.8455 10.0461C44.8966 9.97394 44.8826 9.87408 44.8137 9.81886C43.3921 8.67683 41.7912 8.12161 39.9199 8.12161C37.1686 8.12161 35.2467 9.7744 35.2467 12.1396C35.2467 14.6758 36.9046 15.5738 39.7694 16.2669C42.2078 16.8292 42.6193 17.3002 42.6193 18.1425C42.6193 19.0755 41.7871 19.6557 40.4479 19.6557C38.9607 19.6557 37.7473 19.1541 36.3901 17.9775C36.3565 17.9485 36.3103 17.9352 36.2677 17.9376C36.2229 17.9413 36.1818 17.9621 36.1533 17.9965L34.7582 19.6586C34.6997 19.7276 34.7071 19.8307 34.7746 19.8903C36.3538 21.3016 38.2958 22.0471 40.3915 22.0471C43.3563 22.0471 45.2721 20.4252 45.2721 17.9152C45.2721 15.7939 44.0061 14.6206 40.9015 13.8647Z" fill="#6D6D6D"/>
<path d="M54.1319 16.7079C54.1319 18.4992 53.0297 19.7492 51.4515 19.7492C49.8913 19.7492 48.7144 18.4424 48.7144 16.7079C48.7144 14.9737 49.8913 13.6667 51.4515 13.6667C53.0043 13.6667 54.1319 14.9454 54.1319 16.7079ZM51.9797 11.3489C50.6946 11.3489 49.6406 11.8556 48.7714 12.8939V11.7252C48.7714 11.633 48.6967 11.5578 48.6045 11.5578H46.323C46.2308 11.5578 46.1562 11.633 46.1562 11.7252V24.7108C46.1562 24.8031 46.2308 24.8782 46.323 24.8782H48.6045C48.6967 24.8782 48.7714 24.8031 48.7714 24.7108V20.612C49.6407 21.5887 50.695 22.0657 51.9797 22.0657C54.3675 22.0657 56.7847 20.2255 56.7847 16.7079C56.7847 13.1895 54.3675 11.3489 51.9797 11.3489Z" fill="#6D6D6D"/>
<path d="M62.9803 19.7679C61.3447 19.7679 60.1116 18.4523 60.1116 16.7079C60.1116 14.9562 61.302 13.685 62.9426 13.685C64.5888 13.685 65.8302 15.0006 65.8302 16.7462C65.8302 18.4976 64.6316 19.7679 62.9803 19.7679ZM62.9803 11.3489C59.9052 11.3489 57.4961 13.7194 57.4961 16.7462C57.4961 19.74 59.8886 22.0857 62.9426 22.0857C66.0286 22.0857 68.4451 19.7231 68.4451 16.7079C68.4451 13.7028 66.0452 11.3489 62.9803 11.3489Z" fill="#6D6D6D"/>
<path d="M75.0124 11.5578H72.5016V8.9879C72.5016 8.89563 72.4272 8.82064 72.335 8.82064H70.0537C69.9614 8.82064 69.8863 8.89563 69.8863 8.9879V11.5578H68.7892C68.6972 11.5578 68.623 11.6329 68.623 11.7252V13.6883C68.623 13.7805 68.6972 13.8556 68.7892 13.8556H69.8863V18.9353C69.8863 20.9881 70.9069 22.0288 72.9196 22.0288C73.738 22.0288 74.4171 21.8596 75.057 21.4964C75.109 21.4673 75.1414 21.4112 75.1414 21.3515V19.4821C75.1414 19.4243 75.1112 19.37 75.0621 19.3397C75.0124 19.3085 74.9505 19.3069 74.8996 19.3321C74.4601 19.5535 74.0352 19.6557 73.5602 19.6557C72.8283 19.6557 72.5016 19.3231 72.5016 18.5773V13.8556H75.0124C75.1046 13.8556 75.1787 13.7805 75.1787 13.6883V11.7252C75.1787 11.6329 75.1046 11.5578 75.0124 11.5578Z" fill="#6D6D6D"/>
<path d="M83.76 11.568V11.2523C83.76 10.3238 84.1156 9.90972 84.9132 9.90972C85.3889 9.90972 85.771 10.0043 86.1988 10.1472C86.2515 10.1638 86.3065 10.1555 86.3493 10.1239C86.3934 10.0923 86.4183 10.0417 86.4183 9.98806V8.06322C86.4183 7.98965 86.371 7.92455 86.3004 7.90302C85.8483 7.76841 85.2699 7.63008 84.4039 7.63008C82.2963 7.63008 81.1825 8.81816 81.1825 11.0646V11.548H80.0864C79.9944 11.548 79.9189 11.623 79.9189 11.7153V13.6884C79.9189 13.7806 79.9944 13.8558 80.0864 13.8558H81.1825V21.6909C81.1825 21.7832 81.2569 21.8582 81.3489 21.8582H83.6304C83.7226 21.8582 83.7977 21.7832 83.7977 21.6909V13.8558H85.928L89.1913 21.6889C88.8208 22.5119 88.4566 22.6756 87.9592 22.6756C87.5572 22.6756 87.1339 22.5554 86.7011 22.3184C86.6604 22.2959 86.6123 22.2922 86.5682 22.3058C86.5247 22.3213 86.488 22.3537 86.4695 22.3962L85.6962 24.0946C85.6594 24.1749 85.6908 24.2691 85.768 24.3108C86.5753 24.7485 87.3042 24.9353 88.2047 24.9353C89.8895 24.9353 90.8207 24.1495 91.6418 22.0359L95.6002 11.7959C95.6199 11.7444 95.6141 11.6864 95.5826 11.6405C95.5512 11.5953 95.5006 11.568 95.4453 11.568H93.07C92.999 11.568 92.9352 11.6131 92.9119 11.68L90.4787 18.638L87.8135 11.6754C87.7892 11.6107 87.727 11.568 87.6577 11.568H83.76Z" fill="#6D6D6D"/>
<path d="M78.689 11.5579H76.4073C76.3151 11.5579 76.2402 11.633 76.2402 11.7253V21.6909C76.2402 21.7832 76.3151 21.8582 76.4073 21.8582H78.689C78.781 21.8582 78.8561 21.7832 78.8561 21.6909V11.7253C78.8561 11.633 78.781 11.5579 78.689 11.5579Z" fill="#6D6D6D"/>
<path d="M77.5593 7.02034C76.6555 7.02034 75.9219 7.75305 75.9219 8.65778C75.9219 9.56321 76.6555 10.2966 77.5593 10.2966C78.4628 10.2966 79.1956 9.56321 79.1956 8.65778C79.1956 7.75305 78.4628 7.02034 77.5593 7.02034Z" fill="#6D6D6D"/>
<path d="M97.6414 12.5492H97.2234V13.0829H97.6414C97.8501 13.0829 97.9747 12.9806 97.9747 12.8159C97.9747 12.6423 97.8501 12.5492 97.6414 12.5492ZM97.9125 13.3105L98.3666 13.9471H97.9837L97.5748 13.3632H97.2234V13.9471H96.9029V12.2597H97.6545C98.0459 12.2597 98.3036 12.4603 98.3036 12.7979C98.3036 13.0745 98.1439 13.2436 97.9125 13.3105ZM97.5565 11.6983C96.734 11.6983 96.1116 12.3527 96.1116 13.1543C96.1116 13.9554 96.7296 14.6012 97.548 14.6012C98.3703 14.6012 98.9933 13.9471 98.9933 13.1451C98.9933 12.344 98.3749 11.6983 97.5565 11.6983ZM97.548 14.762C96.645 14.762 95.9424 14.0359 95.9424 13.1543C95.9424 12.2726 96.6542 11.5383 97.5565 11.5383C98.4593 11.5383 99.1622 12.2643 99.1622 13.1451C99.1622 14.0269 98.4509 14.762 97.548 14.762Z" fill="#6D6D6D"/>
</g>
<defs>
<clipPath id="clip0_460_21333">
<rect width="99.9119" height="30" fill="white"/>
</clipPath>
</defs>
</svg>
