<?xml version="1.0" encoding="utf-8"?>
<!-- Generator: Adobe Illustrator 28.3.0, SVG Export Plug-In . SVG Version: 6.00 Build 0)  -->
<svg version="1.1" id="Layer_1" xmlns="http://www.w3.org/2000/svg" xmlns:xlink="http://www.w3.org/1999/xlink" x="0px" y="0px"
	 viewBox="0 0 310 300" style="enable-background:new 0 0 310 300;" xml:space="preserve">
<style type="text/css">
	.st0{opacity:0.2;}
	.st1{opacity:0;fill:#4C0000;}
	.st2{opacity:3.846154e-02;fill:#4A0101;}
	.st3{opacity:7.692308e-02;fill:#480202;}
	.st4{opacity:0.1154;fill:#460303;}
	.st5{opacity:0.1538;fill:#440404;}
	.st6{opacity:0.1923;fill:#420505;}
	.st7{opacity:0.2308;fill:#400606;}
	.st8{opacity:0.2692;fill:#3E0606;}
	.st9{opacity:0.3077;fill:#3C0707;}
	.st10{opacity:0.3462;fill:#3A0808;}
	.st11{opacity:0.3846;fill:#380909;}
	.st12{opacity:0.4231;fill:#360A0A;}
	.st13{opacity:0.4615;fill:#340B0B;}
	.st14{opacity:0.5;fill:#330C0C;}
	.st15{opacity:0.5385;fill:#310D0D;}
	.st16{opacity:0.5769;fill:#2F0E0E;}
	.st17{opacity:0.6154;fill:#2D0F0F;}
	.st18{opacity:0.6538;fill:#2B1010;}
	.st19{opacity:0.6923;fill:#291111;}
	.st20{opacity:0.7308;fill:#271212;}
	.st21{opacity:0.7692;fill:#251212;}
	.st22{opacity:0.8077;fill:#231313;}
	.st23{opacity:0.8462;fill:#211414;}
	.st24{opacity:0.8846;fill:#1F1515;}
	.st25{opacity:0.9231;fill:#1D1616;}
	.st26{opacity:0.9615;fill:#1B1717;}
	.st27{fill:#191818;}
	.st28{fill:url(#SVGID_1_);}
	.st29{fill:url(#SVGID_00000071535411386949371880000016062794242173943985_);}
	.st30{fill:url(#SVGID_00000025411686620677721960000014059061340644564624_);}
	.st31{fill:url(#SVGID_00000150810615198316163850000003984513968503764911_);}
	.st32{fill:url(#SVGID_00000084496461907318874150000014074835753172614819_);}
	.st33{fill:url(#SVGID_00000165930830665877493520000013168742916539526820_);}
	.st34{fill:#FFFFFF;}
	.st35{fill:url(#SVGID_00000076602092878988217230000002410874737576960437_);}
	.st36{fill:url(#SVGID_00000009572765302376653260000002164979441286855063_);}
	.st37{fill:url(#SVGID_00000181779103391228934150000002069185513941140891_);}
	.st38{fill:url(#SVGID_00000168074565051340398550000004404385167481712569_);}
	.st39{fill:url(#SVGID_00000024702375545037612360000006410736364650625442_);}
	.st40{fill:url(#SVGID_00000139993455683941031600000005892309212541683896_);}
	.st41{fill:url(#SVGID_00000169521805700592656160000008101438280776119227_);}
	.st42{fill:url(#SVGID_00000163789698929315728790000009566173824203471509_);}
	.st43{fill:url(#SVGID_00000072967643003225763250000012298944106652566929_);}
	.st44{fill:url(#SVGID_00000158707141414413846030000018064321071897345664_);}
	.st45{fill:url(#SVGID_00000021113028623635819470000006033605832363855273_);}
	.st46{fill:url(#SVGID_00000054256810527148538160000007694254037870526640_);}
	.st47{fill:url(#SVGID_00000070816446395962831480000001511811547488167583_);}
	.st48{fill:url(#SVGID_00000138531146432306938210000000807981975673691529_);}
	.st49{fill:url(#SVGID_00000181053763823479513970000009414432481407870112_);}
	.st50{fill:url(#SVGID_00000054984503235615311820000004368539634947100032_);}
	.st51{fill:#D1D1D1;}
</style>
<g>
	<g class="st0">
		
			<ellipse transform="matrix(2.692949e-02 -0.9996 0.9996 2.692949e-02 -48.162 470.4839)" class="st1" cx="217.6" cy="260" rx="18.1" ry="45.2"/>
		
			<ellipse transform="matrix(2.692959e-02 -0.9996 0.9996 2.692959e-02 -48.162 470.4839)" class="st2" cx="217.6" cy="260" rx="17.6" ry="44.1"/>
		
			<ellipse transform="matrix(2.692969e-02 -0.9996 0.9996 2.692969e-02 -48.162 470.4839)" class="st3" cx="217.6" cy="260" rx="17.2" ry="42.9"/>
		
			<ellipse transform="matrix(2.692981e-02 -0.9996 0.9996 2.692981e-02 -48.162 470.4839)" class="st4" cx="217.6" cy="260" rx="16.7" ry="41.7"/>
		
			<ellipse transform="matrix(2.692992e-02 -0.9996 0.9996 2.692992e-02 -48.162 470.4839)" class="st5" cx="217.6" cy="260" rx="16.2" ry="40.6"/>
		
			<ellipse transform="matrix(2.693005e-02 -0.9996 0.9996 2.693005e-02 -48.162 470.4839)" class="st6" cx="217.6" cy="260" rx="15.8" ry="39.4"/>
		
			<ellipse transform="matrix(2.693018e-02 -0.9996 0.9996 2.693018e-02 -48.162 470.4839)" class="st7" cx="217.6" cy="260" rx="15.3" ry="38.2"/>
		
			<ellipse transform="matrix(2.693032e-02 -0.9996 0.9996 2.693032e-02 -48.162 470.4839)" class="st8" cx="217.6" cy="260" rx="14.8" ry="37.1"/>
		
			<ellipse transform="matrix(2.693046e-02 -0.9996 0.9996 2.693046e-02 -48.162 470.4839)" class="st9" cx="217.6" cy="260" rx="14.4" ry="35.9"/>
		
			<ellipse transform="matrix(2.693062e-02 -0.9996 0.9996 2.693062e-02 -48.162 470.4839)" class="st10" cx="217.6" cy="260" rx="13.9" ry="34.7"/>
		
			<ellipse transform="matrix(2.693079e-02 -0.9996 0.9996 2.693079e-02 -48.1621 470.4839)" class="st11" cx="217.6" cy="260" rx="13.4" ry="33.6"/>
		
			<ellipse transform="matrix(2.693097e-02 -0.9996 0.9996 2.693097e-02 -48.1621 470.4839)" class="st12" cx="217.6" cy="260" rx="13" ry="32.4"/>
		
			<ellipse transform="matrix(2.693117e-02 -0.9996 0.9996 2.693117e-02 -48.1621 470.4838)" class="st13" cx="217.6" cy="260" rx="12.5" ry="31.2"/>
		
			<ellipse transform="matrix(2.693138e-02 -0.9996 0.9996 2.693138e-02 -48.1621 470.4838)" class="st14" cx="217.6" cy="260" rx="12" ry="30.1"/>
		
			<ellipse transform="matrix(2.693161e-02 -0.9996 0.9996 2.693161e-02 -48.1621 470.4838)" class="st15" cx="217.6" cy="260" rx="11.6" ry="28.9"/>
		
			<ellipse transform="matrix(2.693185e-02 -0.9996 0.9996 2.693185e-02 -48.1622 470.4837)" class="st16" cx="217.6" cy="260" rx="11.1" ry="27.8"/>
		
			<ellipse transform="matrix(2.693212e-02 -0.9996 0.9996 2.693212e-02 -48.1622 470.4837)" class="st17" cx="217.6" cy="260" rx="10.6" ry="26.6"/>
		
			<ellipse transform="matrix(2.693241e-02 -0.9996 0.9996 2.693241e-02 -48.1622 470.4836)" class="st18" cx="217.6" cy="260" rx="10.2" ry="25.4"/>
		
			<ellipse transform="matrix(2.693273e-02 -0.9996 0.9996 2.693273e-02 -48.1623 470.4836)" class="st19" cx="217.6" cy="260" rx="9.7" ry="24.3"/>
		
			<ellipse transform="matrix(2.693309e-02 -0.9996 0.9996 2.693309e-02 -48.1623 470.4835)" class="st20" cx="217.6" cy="260" rx="9.2" ry="23.1"/>
		
			<ellipse transform="matrix(2.693348e-02 -0.9996 0.9996 2.693348e-02 -48.1624 470.4835)" class="st21" cx="217.6" cy="260" rx="8.8" ry="21.9"/>
		
			<ellipse transform="matrix(2.693391e-02 -0.9996 0.9996 2.693391e-02 -48.1624 470.4834)" class="st22" cx="217.6" cy="260" rx="8.3" ry="20.8"/>
		
			<ellipse transform="matrix(2.693440e-02 -0.9996 0.9996 2.693440e-02 -48.1625 470.4833)" class="st23" cx="217.6" cy="260" rx="7.8" ry="19.6"/>
		
			<ellipse transform="matrix(2.693495e-02 -0.9996 0.9996 2.693495e-02 -48.1626 470.4832)" class="st24" cx="217.6" cy="260" rx="7.4" ry="18.4"/>
		
			<ellipse transform="matrix(2.693557e-02 -0.9996 0.9996 2.693557e-02 -48.1627 470.483)" class="st25" cx="217.6" cy="260" rx="6.9" ry="17.3"/>
		
			<ellipse transform="matrix(2.693628e-02 -0.9996 0.9996 2.693628e-02 -48.1628 470.4829)" class="st26" cx="217.6" cy="260" rx="6.4" ry="16.1"/>
		
			<ellipse transform="matrix(2.693710e-02 -0.9996 0.9996 2.693710e-02 -48.163 470.4827)" class="st27" cx="217.6" cy="260" rx="6" ry="14.9"/>
	</g>
	<g class="st0">
		
			<ellipse transform="matrix(2.692940e-02 -0.9996 0.9996 2.692940e-02 12.5878 313.6855)" class="st1" cx="167.4" cy="150.4" rx="18.1" ry="45.2"/>
		
			<ellipse transform="matrix(2.692951e-02 -0.9996 0.9996 2.692951e-02 12.5878 313.6855)" class="st2" cx="167.4" cy="150.4" rx="17.6" ry="44.1"/>
		
			<ellipse transform="matrix(2.692961e-02 -0.9996 0.9996 2.692961e-02 12.5878 313.6855)" class="st3" cx="167.4" cy="150.4" rx="17.2" ry="42.9"/>
		
			<ellipse transform="matrix(2.692972e-02 -0.9996 0.9996 2.692972e-02 12.5878 313.6855)" class="st4" cx="167.4" cy="150.4" rx="16.7" ry="41.7"/>
		
			<ellipse transform="matrix(2.692984e-02 -0.9996 0.9996 2.692984e-02 12.5878 313.6855)" class="st5" cx="167.4" cy="150.4" rx="16.2" ry="40.6"/>
		
			<ellipse transform="matrix(2.692997e-02 -0.9996 0.9996 2.692997e-02 12.5878 313.6855)" class="st6" cx="167.4" cy="150.4" rx="15.8" ry="39.4"/>
		
			<ellipse transform="matrix(2.693010e-02 -0.9996 0.9996 2.693010e-02 12.5878 313.6856)" class="st7" cx="167.4" cy="150.4" rx="15.3" ry="38.2"/>
		
			<ellipse transform="matrix(2.693024e-02 -0.9996 0.9996 2.693024e-02 12.5878 313.6856)" class="st8" cx="167.4" cy="150.4" rx="14.8" ry="37.1"/>
		
			<ellipse transform="matrix(2.693039e-02 -0.9996 0.9996 2.693039e-02 12.5878 313.6856)" class="st9" cx="167.4" cy="150.4" rx="14.4" ry="35.9"/>
		
			<ellipse transform="matrix(2.693055e-02 -0.9996 0.9996 2.693055e-02 12.5878 313.6856)" class="st10" cx="167.4" cy="150.4" rx="13.9" ry="34.7"/>
		
			<ellipse transform="matrix(2.693072e-02 -0.9996 0.9996 2.693072e-02 12.5878 313.6856)" class="st11" cx="167.4" cy="150.4" rx="13.4" ry="33.6"/>
		
			<ellipse transform="matrix(2.693090e-02 -0.9996 0.9996 2.693090e-02 12.5878 313.6856)" class="st12" cx="167.4" cy="150.4" rx="13" ry="32.4"/>
		
			<ellipse transform="matrix(2.693110e-02 -0.9996 0.9996 2.693110e-02 12.5878 313.6856)" class="st13" cx="167.4" cy="150.4" rx="12.5" ry="31.2"/>
		
			<ellipse transform="matrix(2.693131e-02 -0.9996 0.9996 2.693131e-02 12.5878 313.6856)" class="st14" cx="167.4" cy="150.4" rx="12" ry="30.1"/>
		
			<ellipse transform="matrix(2.693154e-02 -0.9996 0.9996 2.693154e-02 12.5878 313.6856)" class="st15" cx="167.4" cy="150.4" rx="11.6" ry="28.9"/>
		
			<ellipse transform="matrix(2.693179e-02 -0.9996 0.9996 2.693179e-02 12.5877 313.6856)" class="st16" cx="167.4" cy="150.4" rx="11.1" ry="27.8"/>
		
			<ellipse transform="matrix(2.693206e-02 -0.9996 0.9996 2.693206e-02 12.5877 313.6856)" class="st17" cx="167.4" cy="150.4" rx="10.6" ry="26.6"/>
		
			<ellipse transform="matrix(2.693236e-02 -0.9996 0.9996 2.693236e-02 12.5877 313.6856)" class="st18" cx="167.4" cy="150.4" rx="10.2" ry="25.4"/>
		
			<ellipse transform="matrix(2.693268e-02 -0.9996 0.9996 2.693268e-02 12.5877 313.6855)" class="st19" cx="167.4" cy="150.4" rx="9.7" ry="24.3"/>
		
			<ellipse transform="matrix(2.693304e-02 -0.9996 0.9996 2.693304e-02 12.5876 313.6855)" class="st20" cx="167.4" cy="150.4" rx="9.2" ry="23.1"/>
		
			<ellipse transform="matrix(2.693343e-02 -0.9996 0.9996 2.693343e-02 12.5876 313.6855)" class="st21" cx="167.4" cy="150.4" rx="8.8" ry="21.9"/>
		
			<ellipse transform="matrix(2.693387e-02 -0.9996 0.9996 2.693387e-02 12.5876 313.6855)" class="st22" cx="167.4" cy="150.4" rx="8.3" ry="20.8"/>
		
			<ellipse transform="matrix(2.693436e-02 -0.9996 0.9996 2.693436e-02 12.5875 313.6854)" class="st23" cx="167.4" cy="150.4" rx="7.8" ry="19.6"/>
		
			<ellipse transform="matrix(2.693492e-02 -0.9996 0.9996 2.693492e-02 12.5874 313.6854)" class="st24" cx="167.4" cy="150.4" rx="7.4" ry="18.4"/>
		
			<ellipse transform="matrix(2.693554e-02 -0.9996 0.9996 2.693554e-02 12.5874 313.6853)" class="st25" cx="167.4" cy="150.4" rx="6.9" ry="17.3"/>
		
			<ellipse transform="matrix(2.693626e-02 -0.9996 0.9996 2.693626e-02 12.5873 313.6852)" class="st26" cx="167.4" cy="150.4" rx="6.4" ry="16.1"/>
		
			<ellipse transform="matrix(2.693709e-02 -0.9996 0.9996 2.693709e-02 12.5871 313.6851)" class="st27" cx="167.4" cy="150.4" rx="6" ry="14.9"/>
	</g>
	<g class="st0">
		
			<ellipse transform="matrix(2.692923e-02 -0.9996 0.9996 2.692923e-02 -69.1531 154.5304)" class="st1" cx="44.8" cy="112.8" rx="18.1" ry="45.2"/>
		
			<ellipse transform="matrix(2.692934e-02 -0.9996 0.9996 2.692934e-02 -69.1531 154.5304)" class="st2" cx="44.8" cy="112.8" rx="17.6" ry="44.1"/>
		
			<ellipse transform="matrix(2.692945e-02 -0.9996 0.9996 2.692945e-02 -69.1531 154.5304)" class="st3" cx="44.8" cy="112.8" rx="17.2" ry="42.9"/>
		
			<ellipse transform="matrix(2.692956e-02 -0.9996 0.9996 2.692956e-02 -69.1531 154.5305)" class="st4" cx="44.8" cy="112.8" rx="16.7" ry="41.7"/>
		
			<ellipse transform="matrix(2.692968e-02 -0.9996 0.9996 2.692968e-02 -69.153 154.5305)" class="st5" cx="44.8" cy="112.8" rx="16.2" ry="40.6"/>
		
			<ellipse transform="matrix(2.692981e-02 -0.9996 0.9996 2.692981e-02 -69.153 154.5305)" class="st6" cx="44.8" cy="112.8" rx="15.8" ry="39.4"/>
		
			<ellipse transform="matrix(2.692995e-02 -0.9996 0.9996 2.692995e-02 -69.153 154.5305)" class="st7" cx="44.8" cy="112.8" rx="15.3" ry="38.2"/>
		
			<ellipse transform="matrix(2.693010e-02 -0.9996 0.9996 2.693010e-02 -69.153 154.5305)" class="st8" cx="44.8" cy="112.8" rx="14.8" ry="37.1"/>
		
			<ellipse transform="matrix(2.693025e-02 -0.9996 0.9996 2.693025e-02 -69.153 154.5305)" class="st9" cx="44.8" cy="112.8" rx="14.4" ry="35.9"/>
		
			<ellipse transform="matrix(2.693042e-02 -0.9996 0.9996 2.693042e-02 -69.1529 154.5305)" class="st10" cx="44.8" cy="112.8" rx="13.9" ry="34.7"/>
		
			<ellipse transform="matrix(2.693060e-02 -0.9996 0.9996 2.693060e-02 -69.1529 154.5306)" class="st11" cx="44.8" cy="112.8" rx="13.4" ry="33.6"/>
		
			<ellipse transform="matrix(2.693079e-02 -0.9996 0.9996 2.693079e-02 -69.1529 154.5306)" class="st12" cx="44.8" cy="112.8" rx="13" ry="32.4"/>
		
			<ellipse transform="matrix(2.693100e-02 -0.9996 0.9996 2.693100e-02 -69.1529 154.5306)" class="st13" cx="44.8" cy="112.8" rx="12.5" ry="31.2"/>
		
			<ellipse transform="matrix(2.693122e-02 -0.9996 0.9996 2.693122e-02 -69.1529 154.5306)" class="st14" cx="44.8" cy="112.8" rx="12" ry="30.1"/>
		
			<ellipse transform="matrix(2.693146e-02 -0.9996 0.9996 2.693146e-02 -69.1529 154.5306)" class="st15" cx="44.8" cy="112.8" rx="11.6" ry="28.9"/>
		
			<ellipse transform="matrix(2.693171e-02 -0.9996 0.9996 2.693171e-02 -69.1529 154.5306)" class="st16" cx="44.8" cy="112.8" rx="11.1" ry="27.8"/>
		
			<ellipse transform="matrix(2.693200e-02 -0.9996 0.9996 2.693200e-02 -69.1528 154.5306)" class="st17" cx="44.8" cy="112.8" rx="10.6" ry="26.6"/>
		
			<ellipse transform="matrix(2.693230e-02 -0.9996 0.9996 2.693230e-02 -69.1528 154.5306)" class="st18" cx="44.8" cy="112.8" rx="10.2" ry="25.4"/>
		
			<ellipse transform="matrix(2.693264e-02 -0.9996 0.9996 2.693264e-02 -69.1528 154.5306)" class="st19" cx="44.8" cy="112.8" rx="9.7" ry="24.3"/>
		
			<ellipse transform="matrix(2.693301e-02 -0.9996 0.9996 2.693301e-02 -69.1528 154.5306)" class="st20" cx="44.8" cy="112.8" rx="9.2" ry="23.1"/>
		
			<ellipse transform="matrix(2.693342e-02 -0.9996 0.9996 2.693342e-02 -69.1528 154.5305)" class="st21" cx="44.8" cy="112.8" rx="8.8" ry="21.9"/>
		
			<ellipse transform="matrix(2.693388e-02 -0.9996 0.9996 2.693388e-02 -69.1528 154.5305)" class="st22" cx="44.8" cy="112.8" rx="8.3" ry="20.8"/>
		
			<ellipse transform="matrix(2.693439e-02 -0.9996 0.9996 2.693439e-02 -69.1528 154.5305)" class="st23" cx="44.8" cy="112.8" rx="7.8" ry="19.6"/>
		
			<ellipse transform="matrix(2.693496e-02 -0.9996 0.9996 2.693496e-02 -69.1528 154.5305)" class="st24" cx="44.8" cy="112.8" rx="7.4" ry="18.4"/>
		
			<ellipse transform="matrix(2.693561e-02 -0.9996 0.9996 2.693561e-02 -69.1528 154.5304)" class="st25" cx="44.8" cy="112.8" rx="6.9" ry="17.3"/>
		
			<ellipse transform="matrix(2.693636e-02 -0.9996 0.9996 2.693636e-02 -69.1528 154.5304)" class="st26" cx="44.8" cy="112.8" rx="6.4" ry="16.1"/>
		
			<ellipse transform="matrix(2.693723e-02 -0.9996 0.9996 2.693723e-02 -69.1528 154.5303)" class="st27" cx="44.8" cy="112.8" rx="6" ry="14.9"/>
	</g>
	<g class="st0">
		
			<ellipse transform="matrix(2.692932e-02 -0.9996 0.9996 2.692932e-02 -170.4861 258.8515)" class="st1" cx="47.7" cy="217" rx="18.1" ry="45.2"/>
		
			<ellipse transform="matrix(2.692942e-02 -0.9996 0.9996 2.692942e-02 -170.4861 258.8515)" class="st2" cx="47.7" cy="217" rx="17.6" ry="44.1"/>
		
			<ellipse transform="matrix(2.692952e-02 -0.9996 0.9996 2.692952e-02 -170.4861 258.8515)" class="st3" cx="47.7" cy="217" rx="17.2" ry="42.9"/>
		
			<ellipse transform="matrix(2.692962e-02 -0.9996 0.9996 2.692962e-02 -170.4861 258.8515)" class="st4" cx="47.7" cy="217" rx="16.7" ry="41.7"/>
		
			<ellipse transform="matrix(2.692974e-02 -0.9996 0.9996 2.692974e-02 -170.4861 258.8515)" class="st5" cx="47.7" cy="217" rx="16.2" ry="40.6"/>
		
			<ellipse transform="matrix(2.692986e-02 -0.9996 0.9996 2.692986e-02 -170.4861 258.8515)" class="st6" cx="47.7" cy="217" rx="15.8" ry="39.4"/>
		
			<ellipse transform="matrix(2.692999e-02 -0.9996 0.9996 2.692999e-02 -170.486 258.8515)" class="st7" cx="47.7" cy="217" rx="15.3" ry="38.2"/>
		
			<ellipse transform="matrix(2.693012e-02 -0.9996 0.9996 2.693012e-02 -170.486 258.8515)" class="st8" cx="47.7" cy="217" rx="14.8" ry="37.1"/>
		
			<ellipse transform="matrix(2.693027e-02 -0.9996 0.9996 2.693027e-02 -170.486 258.8515)" class="st9" cx="47.7" cy="217" rx="14.4" ry="35.9"/>
		
			<ellipse transform="matrix(2.693042e-02 -0.9996 0.9996 2.693042e-02 -170.486 258.8515)" class="st10" cx="47.7" cy="217" rx="13.9" ry="34.7"/>
		
			<ellipse transform="matrix(2.693059e-02 -0.9996 0.9996 2.693059e-02 -170.486 258.8515)" class="st11" cx="47.7" cy="217" rx="13.4" ry="33.6"/>
		
			<ellipse transform="matrix(2.693076e-02 -0.9996 0.9996 2.693076e-02 -170.4859 258.8515)" class="st12" cx="47.7" cy="217" rx="13" ry="32.4"/>
		
			<ellipse transform="matrix(2.693095e-02 -0.9996 0.9996 2.693095e-02 -170.4859 258.8515)" class="st13" cx="47.7" cy="217" rx="12.5" ry="31.2"/>
		
			<ellipse transform="matrix(2.693116e-02 -0.9996 0.9996 2.693116e-02 -170.4859 258.8515)" class="st14" cx="47.7" cy="217" rx="12" ry="30.1"/>
		
			<ellipse transform="matrix(2.693138e-02 -0.9996 0.9996 2.693138e-02 -170.4859 258.8515)" class="st15" cx="47.7" cy="217" rx="11.6" ry="28.9"/>
		
			<ellipse transform="matrix(2.693162e-02 -0.9996 0.9996 2.693162e-02 -170.4859 258.8514)" class="st16" cx="47.7" cy="217" rx="11.1" ry="27.8"/>
		
			<ellipse transform="matrix(2.693188e-02 -0.9996 0.9996 2.693188e-02 -170.4859 258.8514)" class="st17" cx="47.7" cy="217" rx="10.6" ry="26.6"/>
		
			<ellipse transform="matrix(2.693217e-02 -0.9996 0.9996 2.693217e-02 -170.4859 258.8514)" class="st18" cx="47.7" cy="217" rx="10.2" ry="25.4"/>
		
			<ellipse transform="matrix(2.693248e-02 -0.9996 0.9996 2.693248e-02 -170.4858 258.8513)" class="st19" cx="47.7" cy="217" rx="9.7" ry="24.3"/>
		
			<ellipse transform="matrix(2.693282e-02 -0.9996 0.9996 2.693282e-02 -170.4858 258.8513)" class="st20" cx="47.7" cy="217" rx="9.2" ry="23.1"/>
		
			<ellipse transform="matrix(2.693320e-02 -0.9996 0.9996 2.693320e-02 -170.4858 258.8513)" class="st21" cx="47.7" cy="217" rx="8.8" ry="21.9"/>
		
			<ellipse transform="matrix(2.693363e-02 -0.9996 0.9996 2.693363e-02 -170.4858 258.8512)" class="st22" cx="47.7" cy="217" rx="8.3" ry="20.8"/>
		
			<ellipse transform="matrix(2.693410e-02 -0.9996 0.9996 2.693410e-02 -170.4858 258.8511)" class="st23" cx="47.7" cy="217" rx="7.8" ry="19.6"/>
		
			<ellipse transform="matrix(2.693463e-02 -0.9996 0.9996 2.693463e-02 -170.4858 258.851)" class="st24" cx="47.7" cy="217" rx="7.4" ry="18.4"/>
		
			<ellipse transform="matrix(2.693524e-02 -0.9996 0.9996 2.693524e-02 -170.4858 258.8509)" class="st25" cx="47.7" cy="217" rx="6.9" ry="17.3"/>
		
			<ellipse transform="matrix(2.693593e-02 -0.9996 0.9996 2.693593e-02 -170.4858 258.8508)" class="st26" cx="47.7" cy="217" rx="6.4" ry="16.1"/>
		
			<ellipse transform="matrix(2.693673e-02 -0.9996 0.9996 2.693673e-02 -170.4858 258.8507)" class="st27" cx="47.7" cy="217" rx="6" ry="14.9"/>
	</g>
	<g class="st0">
		
			<ellipse transform="matrix(2.691596e-02 -0.9996 0.9996 2.691596e-02 94.0627 439.9383)" class="st1" cx="273" cy="171.7" rx="14.7" ry="36.9"/>
		
			<ellipse transform="matrix(2.691606e-02 -0.9996 0.9996 2.691606e-02 94.0626 439.9383)" class="st2" cx="273" cy="171.7" rx="14.4" ry="35.9"/>
		
			<ellipse transform="matrix(2.691616e-02 -0.9996 0.9996 2.691616e-02 94.0626 439.9383)" class="st3" cx="273" cy="171.7" rx="14" ry="35"/>
		
			<ellipse transform="matrix(2.691628e-02 -0.9996 0.9996 2.691628e-02 94.0626 439.9383)" class="st4" cx="273" cy="171.7" rx="13.6" ry="34"/>
		
			<ellipse transform="matrix(2.691640e-02 -0.9996 0.9996 2.691640e-02 94.0626 439.9383)" class="st5" cx="273" cy="171.7" rx="13.2" ry="33.1"/>
		
			<ellipse transform="matrix(2.691652e-02 -0.9996 0.9996 2.691652e-02 94.0626 439.9383)" class="st6" cx="273" cy="171.7" rx="12.8" ry="32.1"/>
		
			<ellipse transform="matrix(2.691666e-02 -0.9996 0.9996 2.691666e-02 94.0626 439.9383)" class="st7" cx="273" cy="171.7" rx="12.5" ry="31.2"/>
		
			<ellipse transform="matrix(2.691680e-02 -0.9996 0.9996 2.691680e-02 94.0626 439.9383)" class="st8" cx="273" cy="171.7" rx="12.1" ry="30.2"/>
		
			<ellipse transform="matrix(2.691695e-02 -0.9996 0.9996 2.691695e-02 94.0625 439.9383)" class="st9" cx="273" cy="171.7" rx="11.7" ry="29.3"/>
		
			<ellipse transform="matrix(2.691711e-02 -0.9996 0.9996 2.691711e-02 94.0625 439.9383)" class="st10" cx="273" cy="171.7" rx="11.3" ry="28.3"/>
		
			<ellipse transform="matrix(2.691729e-02 -0.9996 0.9996 2.691729e-02 94.0625 439.9383)" class="st11" cx="273" cy="171.7" rx="10.9" ry="27.4"/>
		
			<ellipse transform="matrix(2.691747e-02 -0.9996 0.9996 2.691747e-02 94.0625 439.9383)" class="st12" cx="273" cy="171.7" rx="10.6" ry="26.4"/>
		
			<ellipse transform="matrix(2.691767e-02 -0.9996 0.9996 2.691767e-02 94.0624 439.9383)" class="st13" cx="273" cy="171.7" rx="10.2" ry="25.5"/>
		
			<ellipse transform="matrix(2.691789e-02 -0.9996 0.9996 2.691789e-02 94.0624 439.9383)" class="st14" cx="273" cy="171.7" rx="9.8" ry="24.5"/>
		
			<ellipse transform="matrix(2.691812e-02 -0.9996 0.9996 2.691812e-02 94.0623 439.9383)" class="st15" cx="273" cy="171.7" rx="9.4" ry="23.6"/>
		
			<ellipse transform="matrix(2.691837e-02 -0.9996 0.9996 2.691837e-02 94.0623 439.9383)" class="st16" cx="273" cy="171.7" rx="9" ry="22.6"/>
		
			<ellipse transform="matrix(2.691864e-02 -0.9996 0.9996 2.691864e-02 94.0622 439.9382)" class="st17" cx="273" cy="171.7" rx="8.7" ry="21.7"/>
		
			<ellipse transform="matrix(2.691894e-02 -0.9996 0.9996 2.691894e-02 94.0622 439.9382)" class="st18" cx="273" cy="171.7" rx="8.3" ry="20.7"/>
		
			<ellipse transform="matrix(2.691927e-02 -0.9996 0.9996 2.691927e-02 94.0621 439.9382)" class="st19" cx="273" cy="171.7" rx="7.9" ry="19.8"/>
		
			<ellipse transform="matrix(2.691963e-02 -0.9996 0.9996 2.691963e-02 94.062 439.9381)" class="st20" cx="273" cy="171.7" rx="7.5" ry="18.8"/>
		
			<ellipse transform="matrix(2.692003e-02 -0.9996 0.9996 2.692003e-02 94.062 439.9381)" class="st21" cx="273" cy="171.7" rx="7.1" ry="17.9"/>
		
			<ellipse transform="matrix(2.692047e-02 -0.9996 0.9996 2.692047e-02 94.0619 439.938)" class="st22" cx="273" cy="171.7" rx="6.8" ry="16.9"/>
		
			<ellipse transform="matrix(2.692097e-02 -0.9996 0.9996 2.692097e-02 94.0617 439.938)" class="st23" cx="273" cy="171.7" rx="6.4" ry="16"/>
		
			<ellipse transform="matrix(2.692153e-02 -0.9996 0.9996 2.692153e-02 94.0616 439.9379)" class="st24" cx="273" cy="171.7" rx="6" ry="15"/>
		
			<ellipse transform="matrix(2.692216e-02 -0.9996 0.9996 2.692216e-02 94.0615 439.9378)" class="st25" cx="273" cy="171.7" rx="5.6" ry="14.1"/>
		
			<ellipse transform="matrix(2.692289e-02 -0.9996 0.9996 2.692289e-02 94.0613 439.9377)" class="st26" cx="273" cy="171.7" rx="5.2" ry="13.1"/>
		
			<ellipse transform="matrix(2.692373e-02 -0.9996 0.9996 2.692373e-02 94.0611 439.9376)" class="st27" cx="273" cy="171.7" rx="4.9" ry="12.2"/>
	</g>
	<g>
		<linearGradient id="SVGID_1_" gradientUnits="userSpaceOnUse" x1="82.1576" y1="92.4956" x2="179.2312" y2="92.4956">
			<stop  offset="0" style="stop-color:#BA6519"/>
			<stop  offset="1" style="stop-color:#FF9D00"/>
		</linearGradient>
		<path class="st28" d="M178.9,53.3l-26.7,81.1c-1.6,4.8-6.7,7.5-11.6,6l-23.8-7.4c-3,2-5.7,4.7-3.4,6.6c4.3,3.4,7.9,13.6-11.1,9.2
			c-19-4.4-13.3-12.8-4.1-14.6c4-0.8,6.1-2.8,7.2-4.7L87,123.7c-3.6-1.1-5.6-4.9-4.5-8.5l21.8-72.7c1.4-4.6,5.9-7.4,10.6-6.7
			l13.1-0.6l2.7,3c-2.6,2.3-5.6,11.6,1.1,13.9c15.1,5.3,18.4-9.7,17.4-11.1l24.5,3.8C177.7,45.4,180.2,49.5,178.9,53.3z"/>
		
			<linearGradient id="SVGID_00000099652014644012101770000013288714977362871705_" gradientUnits="userSpaceOnUse" x1="175.1251" y1="45.3245" x2="88.9543" y2="114.7186">
			<stop  offset="0" style="stop-color:#FFDE41"/>
			<stop  offset="1" style="stop-color:#FF9D00"/>
		</linearGradient>
		<path style="fill:url(#SVGID_00000099652014644012101770000013288714977362871705_);" d="M176.2,50.3l-26.7,81.1
			c-1.6,4.8-6.7,7.5-11.6,6L114,130c-3,2-5.7,4.7-3.4,6.6c4.3,3.4,7.9,13.6-11.1,9.2c-19-4.4-13.3-12.8-4.1-14.6
			c4-0.8,6.1-2.8,7.2-4.7l-18.3-5.7c-3.6-1.1-5.6-4.9-4.5-8.5l21.8-72.7c1.4-4.6,5.9-7.4,10.6-6.7l15.9,2.4
			c-2.6,2.3-5.6,11.6,1.1,13.9c15.1,5.3,18.4-9.7,17.4-11.1l24.5,3.8C174.9,42.4,177.4,46.5,176.2,50.3z"/>
	</g>
	<g>
		
			<linearGradient id="SVGID_00000061442911705588874440000009499598327476780447_" gradientUnits="userSpaceOnUse" x1="138.7808" y1="96.0698" x2="263.8193" y2="96.0698">
			<stop  offset="0" style="stop-color:#165E38"/>
			<stop  offset="1" style="stop-color:#0BA2B3"/>
		</linearGradient>
		<path style="fill:url(#SVGID_00000061442911705588874440000009499598327476780447_);" d="M257.3,54.4l-29-2.4
			c4.7-6.6,12.8-5.2,18.8-10.1c7.1-5.9-1.9-12.4-17.4-14.9c-15.5-2.5-22.1,6.6-17.3,11.9c3.3,3.7,0.5,8-1.5,10.4l-15.9-2.4
			c-4.5-0.7-8.9,2-10.4,6.3l-10.8,31.6c-0.9,2.5-3.7,4-6.2,3c-0.2-0.1-0.3-0.1-0.5-0.2c-5.1-2.9-7.5-9.2-16.1-8.6
			c-8.6,0.6-18.6,11.9-6.9,20.9c7.2,5.6,13.9-3.3,20.2,2c0,0,0,0,0,0c1.7,1.5,2.3,3.9,1.6,6.1l-13,28.9c-1.1,3.3,3.4,8.5,6.7,9.5
			l60,18.7c4.6,1.4,9.4-1,11-5.5l11-31.7c-0.6-0.8-2-3-2.7-3c-14.6-0.5-11.2-9.2-6.8-18.1c5.3-10.4,13.1-4.7,17.1-0.7l14.3-41.1
			C264.8,61.3,261.1,55,257.3,54.4z"/>
		
			<linearGradient id="SVGID_00000126305702541118991170000016930424863965843598_" gradientUnits="userSpaceOnUse" x1="198.7308" y1="31.6475" x2="201.4099" y2="159.4427">
			<stop  offset="0" style="stop-color:#82FB7C"/>
			<stop  offset="1" style="stop-color:#0BA2B3"/>
		</linearGradient>
		<path style="fill:url(#SVGID_00000126305702541118991170000016930424863965843598_);" d="M255.9,53.7l-30.4-4.7
			c4.7-6.6,12.8-5.2,18.8-10.1c7.1-5.9-2.3-9.9-17.9-12.4c-15.5-2.5-21.7,4.1-16.9,9.5c3.3,3.7,0.5,8-1.5,10.4l-15.9-2.4
			c-4.5-0.7-8.9,2-10.4,6.3L171,81.8c-0.9,2.5-3.7,4-6.2,3c-0.2-0.1-0.3-0.1-0.5-0.2c-5.1-2.9-7.5-9.2-16.1-8.6
			c-8.6,0.6-14,15.2-6.9,20.9c7.1,5.7,13.9-3.3,20.2,2c0,0,0,0,0,0c1.7,1.5,2.3,3.9,1.6,6.1l-10.4,30.5c-1.1,3.3,0.7,6.9,4.1,8
			l60,18.7c4.6,1.4,9.4-1,11-5.5l11-31.7c-17.4,0.7-14.2-11.8-9.5-21.1c5.3-10.4,13.1-4.7,17.1-0.7l14.3-41.1
			C262.1,58.3,259.7,54.3,255.9,53.7z"/>
	</g>
	<g>
		<g>
			<g>
				
					<linearGradient id="SVGID_00000023261693570560980210000010622369187050417028_" gradientUnits="userSpaceOnUse" x1="8778.6602" y1="-8152.9727" x2="8762.6807" y2="-8136.3643" gradientTransform="matrix(-0.7274 1.8718 1.8723 0.7273 21905.0059 -10363.4932)">
					<stop  offset="0" style="stop-color:#FF9D00"/>
					<stop  offset="1" style="stop-color:#FFE84C"/>
				</linearGradient>
				<path style="fill:url(#SVGID_00000023261693570560980210000010622369187050417028_);" d="M269,155.9
					c14.1,4.3,30.3-4.7,36.1-19.9s-0.9-31-15.1-35.3c-14.1-4.3-30.3,4.7-36.1,19.9C248.2,135.9,254.9,151.7,269,155.9z"/>
				
					<linearGradient id="SVGID_00000118377635500196050190000016601036765516028071_" gradientUnits="userSpaceOnUse" x1="8737.5723" y1="-8858.1602" x2="8766.9639" y2="-8858.1602" gradientTransform="matrix(-0.5049 1.9641 1.8723 0.7273 21281.6074 -10622.2158)">
					<stop  offset="0" style="stop-color:#FF9D00"/>
					<stop  offset="1" style="stop-color:#FFE84C"/>
				</linearGradient>
				<path style="fill:url(#SVGID_00000118377635500196050190000016601036765516028071_);" d="M266.9,153.2
					c14.1,4.3,30.3-4.7,36.1-19.9c5.8-15.2-0.9-31-15.1-35.3c-14.1-4.3-30.3,4.7-36.1,19.9C246.1,133.1,252.8,148.9,266.9,153.2z"/>
			</g>
		</g>
		<polygon class="st34" points="264,118.2 271,138 295.3,127.4 292.8,121.7 274.9,129.8 269.1,115.4 		"/>
	</g>
	<g>
		<g>
			<g>
				
					<linearGradient id="SVGID_00000157990023081020790470000018006313404749347515_" gradientUnits="userSpaceOnUse" x1="-15925.3984" y1="1557.225" x2="-15900.2842" y2="1566.2405" gradientTransform="matrix(0.5431 -1.6204 -1.3867 -0.4719 10858.2295 -24887.7227)">
					<stop  offset="0" style="stop-color:#303030"/>
					<stop  offset="1" style="stop-color:#727272"/>
				</linearGradient>
				<path style="fill:url(#SVGID_00000157990023081020790470000018006313404749347515_);" d="M48.2,127c-0.2-0.1-0.4-0.1-0.7-0.1
					c-0.2-0.1-0.4-0.3-0.6-0.3c-4.1-1.4-11.6,10.2-16.9,26c-5.3,15.7-6.2,29.6-2.2,31c0.3,0.1,0.9,0.5,1.3,0.4l27.3,9.3l0.2-0.6
					c-4.1-1.4-3.1-15.1,2.1-30.7s12.7-27,16.8-25.7L48.2,127z"/>
				
					<linearGradient id="SVGID_00000113349185076299714910000010751736831625865641_" gradientUnits="userSpaceOnUse" x1="-15898.584" y1="1550.9203" x2="-15921.9707" y2="1551.0453" gradientTransform="matrix(0.5431 -1.6204 -1.3867 -0.4719 10858.2295 -24887.7227)">
					<stop  offset="0" style="stop-color:#303030"/>
					<stop  offset="1" style="stop-color:#727272"/>
				</linearGradient>
				<path style="fill:url(#SVGID_00000113349185076299714910000010751736831625865641_);" d="M75.1,136.1
					c-4.1-1.4-11.6,10.2-16.9,26s-6.2,29.6-2.2,31c4.1,1.4,11.6-10.2,16.9-26S79.1,137.5,75.1,136.1z"/>
			</g>
			<g>
				
					<linearGradient id="SVGID_00000028314651030499021110000018320016570007870899_" gradientUnits="userSpaceOnUse" x1="-17577.2734" y1="3241.6929" x2="-17553.9297" y2="3250.0725" gradientTransform="matrix(0.4516 -1.3485 -1.1594 -0.3893 11770.7803 -22253.6875)">
					<stop  offset="0" style="stop-color:#DDDDDD"/>
					<stop  offset="1" style="stop-color:#F9F9F9"/>
				</linearGradient>
				<path style="fill:url(#SVGID_00000028314651030499021110000018320016570007870899_);" d="M77.3,143.8c-0.2-0.1-0.4-0.1-0.6-0.1
					c-0.2-0.1-0.3-0.2-0.5-0.3c-3.4-1.1-9.7,8.5-14.1,21.6c-4.4,13.1-5.2,24.6-1.8,25.8c0.3,0.1,0.8,0.4,1.1,0.4l14.4,4.3L76,195
					c-3.4-1.1-2.7-12.6,1.7-25.5c4.3-12.9,10.6-22.5,14-21.4L77.3,143.8z"/>
				
					<linearGradient id="SVGID_00000142147551413257973010000002173364649404944044_" gradientUnits="userSpaceOnUse" x1="-17551.1953" y1="3238.7715" x2="-17574.5801" y2="3238.8965" gradientTransform="matrix(0.4516 -1.3485 -1.1594 -0.3893 11770.7803 -22253.6875)">
					<stop  offset="0" style="stop-color:#DDDDDD"/>
					<stop  offset="1" style="stop-color:#F9F9F9"/>
				</linearGradient>
				<path style="fill:url(#SVGID_00000142147551413257973010000002173364649404944044_);" d="M91.3,148c-3.4-1.1-9.7,8.5-14.1,21.6
					c-4.4,13.1-5.2,24.6-1.8,25.8c3.4,1.1,9.7-8.5,14.1-21.6C93.9,160.6,94.7,149.1,91.3,148z"/>
			</g>
		</g>
		
			<linearGradient id="SVGID_00000034080562496166770700000007889327339661039539_" gradientUnits="userSpaceOnUse" x1="-368.1913" y1="-339.6752" x2="-410.0821" y2="-321.5912" gradientTransform="matrix(0.9963 -8.570000e-02 8.570000e-02 0.9963 581.2198 489.0953)">
			<stop  offset="0" style="stop-color:#FFCAA6"/>
			<stop  offset="1" style="stop-color:#EFA878"/>
		</linearGradient>
		<path style="fill:url(#SVGID_00000034080562496166770700000007889327339661039539_);" d="M202,193.4c0,0-36.7-31.7-44.5-32.3
			c-5.7-0.4-23.4-2.7-32.9-3.8c-3.7-0.5-6.8,2.9-6,6.6c0.6,2.8,2.2,5.5,6.1,6c8.8,1.3,16.8,2.4,16.8,2.4s19.3,44.5,19.4,48.6
			c0.1,4.1-1.3,5.3-1.3,5.3s7.1,4.9,18.2,5.8c11.2,0.9,21.1,1.1,22.1,1.2S202,193.4,202,193.4z"/>
		
			<linearGradient id="SVGID_00000002344951189032589930000013377827024243725988_" gradientUnits="userSpaceOnUse" x1="-408.0945" y1="-341.4218" x2="-459.9446" y2="-329.3986" gradientTransform="matrix(0.9963 -8.570000e-02 8.570000e-02 0.9963 581.2198 489.0953)">
			<stop  offset="0" style="stop-color:#FFCAA6"/>
			<stop  offset="1" style="stop-color:#EFA878"/>
		</linearGradient>
		<path style="fill:url(#SVGID_00000002344951189032589930000013377827024243725988_);" d="M123.5,157.1l8.9,1.1
			c0,0,3.8,9.3,12.9,16c9,6.6,14.3-0.2,14.3-0.2L148,160.9c0,0-4.9-7.9-11-9.8c-6.1-1.9-19.3,0.5-27.9,2.7
			c-8.6,2.1-18.5,0.8-18.5,0.8c-14.6,14.8-11.1,34.1-11.1,34.1s5.6,1.3,9.9,2.5c4.3,1.2,5.9,3.2,15.4,10.9c0.7,0.6,1.7,1.1,2.7,1.4
			l0,0c0,0,12.3,19.9,18.3,20.5c4.6,0.5,5.8-1.2,4.3-4.4c2.3,2.3,4.5,4,6.2,4.3c6.1,1,5.1-0.4,2.2-6.2c0,0,0,0,0,0
			c3.3,4.9,6.9,9.1,9.8,8.9c5.3-0.4,3.7-4.6,1.4-8.9c2.7,4.9,8.4,8.5,9.8,8.5c3.8,0.1,5.6-2.9,3.6-8.5c-1.9-5.6-11.8-22.6-11.8-22.6
			l-0.2,0.1l-9.6-22.9c0,0-3.1-0.3-10.5-1.3c-4.6-0.6-8.2-5.9-10.3-9.9C119.7,159.1,121.3,156.8,123.5,157.1z M147.6,213.5
			C147.6,213.4,147.6,213.4,147.6,213.5c0.2,0.4,0.5,0.9,0.7,1.4C148,214.3,147.8,213.9,147.6,213.5z"/>
		
			<linearGradient id="SVGID_00000152222510970022725400000015186560134147689650_" gradientUnits="userSpaceOnUse" x1="-449.6795" y1="-340.1729" x2="-445.2056" y2="-330.4795" gradientTransform="matrix(0.9963 -8.570000e-02 8.570000e-02 0.9963 581.2198 489.0953)">
			<stop  offset="0" style="stop-color:#FFCAA6"/>
			<stop  offset="1" style="stop-color:#EFA878"/>
		</linearGradient>
		<path style="fill:url(#SVGID_00000152222510970022725400000015186560134147689650_);" d="M117.2,192.4
			C117.2,192.4,117.2,192.4,117.2,192.4l-15,9.6c0,0-2.3,0.2-5.1-1.3c-2.7-1.4-4-8-2.6-8.4c0,0,18.1-8.6,21.4-6.9
			C119.2,187.1,117.3,192.2,117.2,192.4z"/>
		
			<linearGradient id="SVGID_00000013183966848773925590000011966890789106891409_" gradientUnits="userSpaceOnUse" x1="-437.0488" y1="-324.663" x2="-433.041" y2="-317.5793" gradientTransform="matrix(0.9963 -8.570000e-02 8.570000e-02 0.9963 581.2198 489.0953)">
			<stop  offset="0" style="stop-color:#FFCAA6"/>
			<stop  offset="1" style="stop-color:#EFA878"/>
		</linearGradient>
		<path style="fill:url(#SVGID_00000013183966848773925590000011966890789106891409_);" d="M130.8,207.2l-13.6,9.7
			c0,0-2.8,1-6.5-2.3c-3.7-3.3-2.4-5.1-2.4-5.1l15.5-10.1l0,0l0.1,0c0.8-0.4,4.7-2.4,7.5,0.7C134.5,203.6,130.8,207.2,130.8,207.2z"
			/>
		
			<linearGradient id="SVGID_00000017490301137239662050000018367018831990640812_" gradientUnits="userSpaceOnUse" x1="-443.4871" y1="-332.038" x2="-439.4792" y2="-324.5815" gradientTransform="matrix(0.9963 -8.570000e-02 8.570000e-02 0.9963 581.2198 489.0953)">
			<stop  offset="0" style="stop-color:#FFCAA6"/>
			<stop  offset="1" style="stop-color:#EFA878"/>
		</linearGradient>
		<path style="fill:url(#SVGID_00000017490301137239662050000018367018831990640812_);" d="M123.8,199.4l-15.5,10.1
			c0,0-1.4-0.5-4.5-2.1c-3.1-1.6-1.6-5.3-1.6-5.3l15-9.6c0,0,0,0,0,0c0.2-0.1,3-1.9,6.2,0.7C126.5,195.6,124,199.1,123.8,199.4z"/>
		
			<linearGradient id="SVGID_00000156581094637037572330000015052582041980947331_" gradientUnits="userSpaceOnUse" x1="-431.3423" y1="-315.2445" x2="-427.8004" y2="-309.5589" gradientTransform="matrix(0.9963 -8.570000e-02 8.570000e-02 0.9963 581.2198 489.0953)">
			<stop  offset="0" style="stop-color:#FFCAA6"/>
			<stop  offset="1" style="stop-color:#EFA878"/>
		</linearGradient>
		<path style="fill:url(#SVGID_00000156581094637037572330000015052582041980947331_);" d="M135,215.9c-4.4,3.9-11.8,8.4-15.7,7.3
			c-4-1-2.1-6.4-2.1-6.4l13.6-9.7c0,0,3.4-1,5.4,1.1C139,211.2,138.6,212.7,135,215.9z"/>
		<g>
			<g>
				
					<linearGradient id="SVGID_00000109746650758212272620000007752059278166928535_" gradientUnits="userSpaceOnUse" x1="-17578.8164" y1="3132.4963" x2="-17555.4746" y2="3140.876" gradientTransform="matrix(0.4516 -1.3485 -1.1594 -0.3893 11770.7803 -22253.6875)">
					<stop  offset="0" style="stop-color:#DDDDDD"/>
					<stop  offset="1" style="stop-color:#F9F9F9"/>
				</linearGradient>
				<path style="fill:url(#SVGID_00000109746650758212272620000007752059278166928535_);" d="M203.2,188.4c-0.2-0.1-0.4-0.1-0.6-0.1
					c-0.2-0.1-0.3-0.2-0.5-0.3c-3.4-1.1-9.7,8.5-14.1,21.6c-4.4,13.1-5.2,24.6-1.8,25.8c0.3,0.1,0.8,0.4,1.1,0.4l14.4,4.3l0.2-0.5
					c-3.4-1.1-2.7-12.6,1.7-25.5c4.3-12.9,10.6-22.5,14-21.4L203.2,188.4z"/>
				
					<linearGradient id="SVGID_00000101824725328844822110000001401381185804338319_" gradientUnits="userSpaceOnUse" x1="-17552.7383" y1="3129.575" x2="-17576.125" y2="3129.7" gradientTransform="matrix(0.4516 -1.3485 -1.1594 -0.3893 11770.7803 -22253.6875)">
					<stop  offset="0" style="stop-color:#DDDDDD"/>
					<stop  offset="1" style="stop-color:#F9F9F9"/>
				</linearGradient>
				<path style="fill:url(#SVGID_00000101824725328844822110000001401381185804338319_);" d="M217.2,192.5
					c-3.4-1.1-9.7,8.5-14.1,21.6c-4.4,13.1-5.2,24.6-1.8,25.8c3.4,1.1,9.7-8.5,14.1-21.6C219.8,205.2,220.6,193.7,217.2,192.5z"/>
			</g>
			<g>
				
					<linearGradient id="SVGID_00000124848494049024792060000011511196445016180891_" gradientUnits="userSpaceOnUse" x1="-15926.9043" y1="1431.6993" x2="-15901.7891" y2="1440.7148" gradientTransform="matrix(0.5431 -1.6204 -1.3867 -0.4719 10858.2295 -24887.7227)">
					<stop  offset="0" style="stop-color:#303030"/>
					<stop  offset="1" style="stop-color:#727272"/>
				</linearGradient>
				<path style="fill:url(#SVGID_00000124848494049024792060000011511196445016180891_);" d="M221.5,188.6c-0.2-0.1-0.4-0.1-0.7-0.1
					c-0.2-0.1-0.4-0.3-0.6-0.3c-4.1-1.4-11.6,10.2-16.9,26c-5.3,15.7-6.2,29.6-2.2,31c0.3,0.1,0.9,0.5,1.3,0.4l27.3,9.3l0.2-0.6
					c-4.1-1.4-3.1-15.1,2.1-30.7s12.7-27,16.8-25.7L221.5,188.6z"/>
				
					<linearGradient id="SVGID_00000160157558501295836800000004667021116683576978_" gradientUnits="userSpaceOnUse" x1="-15900.0898" y1="1425.3947" x2="-15923.4756" y2="1425.5197" gradientTransform="matrix(0.5431 -1.6204 -1.3867 -0.4719 10858.2295 -24887.7227)">
					<stop  offset="0" style="stop-color:#303030"/>
					<stop  offset="1" style="stop-color:#727272"/>
				</linearGradient>
				<path style="fill:url(#SVGID_00000160157558501295836800000004667021116683576978_);" d="M248.3,197.8
					c-4.1-1.4-11.6,10.2-16.9,26s-6.2,29.6-2.2,31c4.1,1.4,11.6-10.2,16.9-26S252.4,199.2,248.3,197.8z"/>
			</g>
		</g>
	</g>
	<g>
		<g>
			
				<linearGradient id="SVGID_00000183225469121100390030000015996997671829018243_" gradientUnits="userSpaceOnUse" x1="-34.933" y1="65.9482" x2="-99.1814" y2="80.8464" gradientTransform="matrix(1 0 1.720000e-02 0.9996 113.6394 -2.5791)">
				<stop  offset="0" style="stop-color:#C8C8C8"/>
				<stop  offset="1" style="stop-color:#8D8D8D"/>
			</linearGradient>
			<path style="fill:url(#SVGID_00000183225469121100390030000015996997671829018243_);" d="M36.1,26.4l53.8,6.1
				c3,0.3,5,3.4,4.1,6.2l-22.3,70.9c-0.9,3-4,4.8-7,4.1L11,103.3c-2.8-0.5-4.5-3.4-3.6-6.1l21.9-66.4C30.3,27.9,33.1,26.1,36.1,26.4
				z"/>
			
				<linearGradient id="SVGID_00000183960805034686432260000007472684562833911476_" gradientUnits="userSpaceOnUse" x1="-35.6147" y1="64.8112" x2="-99.8632" y2="79.7094" gradientTransform="matrix(1 0 1.720000e-02 0.9996 113.6394 -2.5791)">
				<stop  offset="0" style="stop-color:#E6E6E6"/>
				<stop  offset="1" style="stop-color:#F9F9F9"/>
			</linearGradient>
			<path style="fill:url(#SVGID_00000183960805034686432260000007472684562833911476_);" d="M35.4,25.3l53.8,6.1
				c3,0.3,5,3.4,4.1,6.2l-22.3,70.9c-0.9,3-4,4.8-7,4.1l-53.5-10.5c-2.8-0.5-4.5-3.4-3.6-6.1l21.9-66.4C29.6,26.7,32.4,25,35.4,25.3
				z"/>
		</g>
		<g>
			<g>
				<path class="st51" d="M33,50.2l-0.7-11.4l1.5,0.1l0.3,5.8c0.1,1.4,0.1,2.8,0.1,3.9l0,0c0.4-1.1,1-2.4,1.6-3.9l2.5-5.6l1.5,0.1
					l0.3,5.8c0.1,1.4,0.1,2.7,0.1,3.9l0,0c0.5-1.2,1-2.5,1.6-3.8l2.5-5.6l1.5,0.1l-5.3,11.1l-1.5-0.1l-0.3-5.9
					c-0.1-1.5-0.1-2.6,0-3.7l0,0c-0.4,1.1-0.9,2.2-1.5,3.6l-2.7,5.8L33,50.2z"/>
			</g>
			<g>
				<path class="st51" d="M81.1,44.6l-31.6-4.1c-0.4-0.1-0.6-0.4-0.5-0.8l0,0c0.1-0.4,0.5-0.7,0.9-0.7l31.6,4.1
					c0.4,0.1,0.6,0.4,0.5,0.8l0,0C81.9,44.4,81.5,44.7,81.1,44.6z"/>
				<path class="st51" d="M80.1,48.7l-31.6-4.1c-0.4-0.1-0.6-0.4-0.5-0.8l0,0c0.1-0.4,0.5-0.7,0.9-0.7l31.6,4.1
					c0.4,0.1,0.6,0.4,0.5,0.8l0,0C80.9,48.5,80.5,48.8,80.1,48.7z"/>
				<path class="st51" d="M79,52.8l-31.6-4.1c-0.4-0.1-0.6-0.4-0.5-0.8l0,0c0.1-0.4,0.5-0.7,0.9-0.7l31.6,4.1
					c0.4,0.1,0.6,0.4,0.5,0.8v0C79.8,52.6,79.4,52.9,79,52.8z"/>
				<path class="st51" d="M77.9,56.9l-31.6-4.1c-0.4-0.1-0.6-0.4-0.5-0.8l0,0c0.1-0.4,0.5-0.7,0.9-0.7l31.6,4.1
					c0.4,0.1,0.6,0.4,0.5,0.8l0,0C78.7,56.7,78.3,57,77.9,56.9z"/>
				<path class="st51" d="M76.9,61l-47.2-6.1c-0.4-0.1-0.6-0.4-0.5-0.8l0,0c0.1-0.4,0.5-0.7,0.9-0.7l47.2,6.1
					c0.4,0.1,0.6,0.4,0.5,0.8l0,0C77.7,60.8,77.3,61.1,76.9,61z"/>
				<path class="st51" d="M75.8,65.1L28.6,59c-0.4-0.1-0.6-0.4-0.5-0.8l0,0c0.1-0.4,0.5-0.7,0.9-0.7l47.2,6.1
					c0.4,0.1,0.6,0.4,0.5,0.8l0,0C76.6,64.9,76.2,65.2,75.8,65.1z"/>
				<path class="st51" d="M74.7,69.2l-47.2-6.1c-0.4-0.1-0.6-0.4-0.5-0.8l0,0c0.1-0.4,0.5-0.7,0.9-0.7l47.2,6.1
					c0.4,0.1,0.6,0.4,0.5,0.8l0,0C75.5,69,75.1,69.3,74.7,69.2z"/>
				<path class="st51" d="M72.3,82.3l-47.4-7.9c-0.4-0.1-0.6-0.5-0.5-0.9l0,0c0.1-0.4,0.5-0.7,0.9-0.6l47.4,7.9
					c0.4,0.1,0.6,0.5,0.5,0.9l0,0C73.1,82.1,72.7,82.4,72.3,82.3z"/>
				<path class="st51" d="M71.2,86.4l-47.4-7.9c-0.4-0.1-0.6-0.5-0.5-0.9l0,0c0.1-0.4,0.5-0.7,0.9-0.6l47.4,7.9
					c0.4,0.1,0.6,0.5,0.5,0.9l0,0C72,86.2,71.6,86.5,71.2,86.4z"/>
				<path class="st51" d="M70.2,90.5l-47.4-7.9c-0.4-0.1-0.6-0.5-0.5-0.9l0,0c0.1-0.4,0.5-0.7,0.9-0.6L70.6,89
					c0.4,0.1,0.6,0.5,0.5,0.9l0,0C71,90.3,70.6,90.6,70.2,90.5z"/>
				<path class="st51" d="M68,95.2l-48.4-9c-0.4-0.1-0.6-0.4-0.5-0.8l0,0c0.2-0.4,0.6-0.6,1-0.5l48.4,9c0.4,0.1,0.6,0.4,0.5,0.8l0,0
					C68.9,95.1,68.4,95.3,68,95.2z"/>
				<path class="st51" d="M66.5,98.8l-48.4-9c-0.4-0.1-0.6-0.4-0.5-0.8l0,0c0.2-0.4,0.6-0.6,1-0.5l48.4,9c0.4,0.1,0.6,0.4,0.5,0.8
					l0,0C67.4,98.7,66.9,98.9,66.5,98.8z"/>
				<path class="st51" d="M65,102.4l-48.4-9c-0.4-0.1-0.6-0.4-0.5-0.8l0,0c0.2-0.4,0.6-0.6,1-0.5l48.4,9c0.4,0.1,0.6,0.4,0.5,0.8
					l0,0C65.9,102.3,65.4,102.5,65,102.4z"/>
			</g>
		</g>
	</g>
</g>
</svg>
