<?xml version="1.0" encoding="UTF-8"?>
<svg id="a" data-name="Layer 1" xmlns="http://www.w3.org/2000/svg" xmlns:xlink="http://www.w3.org/1999/xlink" viewBox="0 0 263.55 214.77">
  <defs>
    <style>
      .x {
        fill: #251212;
        opacity: .77;
      }

      .x, .y, .z, .aa, .ab, .ac, .ad, .ae, .af, .ag, .ah, .ai, .aj, .ak, .al, .am, .an, .ao, .ap, .aq, .ar, .as, .at, .au, .av, .aw, .ax, .ay, .az, .ba, .bb, .bc, .bd, .be, .bf, .bg, .bh, .bi, .bj, .bk, .bl, .bm, .bn, .bo, .bp, .bq, .br, .bs, .bt, .bu, .bv {
        stroke-width: 0px;
      }

      .y {
        fill: #400606;
        opacity: .23;
      }

      .z {
        fill: #2b1010;
        opacity: .65;
      }

      .aa {
        fill: #191818;
      }

      .ab {
        fill: #380909;
        opacity: .38;
      }

      .ac {
        fill: #310d0d;
        opacity: .54;
      }

      .ad {
        fill: #480202;
        opacity: .08;
      }

      .ae {
        fill: #3e0606;
        opacity: .27;
      }

      .af {
        fill: #271212;
        opacity: .73;
      }

      .ag {
        fill: #340b0b;
        opacity: .46;
      }

      .ah {
        fill: #360a0a;
        opacity: .42;
      }

      .ai {
        fill: #4c0000;
        opacity: 0;
      }

      .aj {
        fill: #1b1717;
        opacity: .96;
      }

      .ak {
        fill: #231313;
        opacity: .81;
      }

      .al {
        fill: #3c0707;
        opacity: .31;
      }

      .am {
        fill: #460303;
        opacity: .12;
      }

      .an {
        fill: #3a0808;
        opacity: .35;
      }

      .ao {
        fill: #d1d1d1;
      }

      .ap {
        fill: #2d0f0f;
        opacity: .62;
      }

      .aq {
        fill: #4a0101;
        opacity: .04;
      }

      .ar {
        fill: #291111;
        opacity: .69;
      }

      .as {
        fill: #420505;
        opacity: .19;
      }

      .at {
        fill: #211414;
        opacity: .85;
      }

      .au {
        fill: #2f0e0e;
        opacity: .58;
      }

      .bw {
        opacity: .2;
      }

      .av {
        fill: #1d1616;
        opacity: .92;
      }

      .aw {
        fill: #1f1515;
        opacity: .88;
      }

      .ax {
        fill: #330c0c;
        opacity: .5;
      }

      .ay {
        fill: #fff;
      }

      .az {
        fill: #440404;
        opacity: .15;
      }

      .ba {
        fill: url(#b);
      }

      .bb {
        fill: url(#v);
      }

      .bc {
        fill: url(#c);
      }

      .bd {
        fill: url(#e);
      }

      .be {
        fill: url(#w);
      }

      .bf {
        fill: url(#u);
      }

      .bg {
        fill: url(#t);
      }

      .bh {
        fill: url(#f);
      }

      .bi {
        fill: url(#d);
      }

      .bj {
        fill: url(#s);
      }

      .bk {
        fill: url(#j);
      }

      .bl {
        fill: url(#q);
      }

      .bm {
        fill: url(#r);
      }

      .bn {
        fill: url(#i);
      }

      .bo {
        fill: url(#h);
      }

      .bp {
        fill: url(#m);
      }

      .bq {
        fill: url(#g);
      }

      .br {
        fill: url(#o);
      }

      .bs {
        fill: url(#p);
      }

      .bt {
        fill: url(#k);
      }

      .bu {
        fill: url(#n);
      }

      .bv {
        fill: url(#l);
      }
    </style>
    <linearGradient id="b" x1="70.14" y1="57.11" x2="152.59" y2="57.11" gradientUnits="userSpaceOnUse">
      <stop offset="0" stop-color="#ba6519"/>
      <stop offset="1" stop-color="#ff9d00"/>
    </linearGradient>
    <linearGradient id="c" x1="149.11" y1="17.05" x2="75.91" y2="75.99" gradientUnits="userSpaceOnUse">
      <stop offset="0" stop-color="#ffde41"/>
      <stop offset="1" stop-color="#ff9d00"/>
    </linearGradient>
    <linearGradient id="d" x1="118.23" y1="60.15" x2="224.44" y2="60.15" gradientUnits="userSpaceOnUse">
      <stop offset="0" stop-color="#165e38"/>
      <stop offset="1" stop-color="#0ba2b3"/>
    </linearGradient>
    <linearGradient id="e" x1="169.16" y1="5.43" x2="171.43" y2="113.98" gradientUnits="userSpaceOnUse">
      <stop offset="0" stop-color="#82fb7c"/>
      <stop offset="1" stop-color="#0ba2b3"/>
    </linearGradient>
    <linearGradient id="f" x1="8754.02" y1="-8209.42" x2="8740.44" y2="-8195.31" gradientTransform="translate(21954.77 -10318.66) rotate(111.24) scale(2.01 -2.01)" gradientUnits="userSpaceOnUse">
      <stop offset="0" stop-color="#ff9d00"/>
      <stop offset="1" stop-color="#ffe84c"/>
    </linearGradient>
    <linearGradient id="g" x1="8716.66" y1="-8916.92" x2="8741.62" y2="-8916.92" gradientTransform="translate(21338.52 -10574.42) rotate(104.42) scale(2.03 -1.99) skewX(6.7)" xlink:href="#f"/>
    <linearGradient id="h" x1="-15956.83" y1="1483.23" x2="-15935.5" y2="1490.89" gradientTransform="translate(10765.56 -25022.58) rotate(-71.47) scale(1.71 -1.46) skewX(.23)" gradientUnits="userSpaceOnUse">
      <stop offset="0" stop-color="#303030"/>
      <stop offset="1" stop-color="#727272"/>
    </linearGradient>
    <linearGradient id="i" x1="-15934.06" y1="1477.88" x2="-15953.92" y2="1477.99" xlink:href="#h"/>
    <linearGradient id="j" x1="-17609.04" y1="3167.25" x2="-17589.21" y2="3174.37" gradientTransform="translate(11687.96 -22375.16) rotate(-71.48) scale(1.42 -1.22) skewX(.04)" gradientUnits="userSpaceOnUse">
      <stop offset="0" stop-color="#ddd"/>
      <stop offset="1" stop-color="#f9f9f9"/>
    </linearGradient>
    <linearGradient id="k" x1="-17586.89" y1="3164.77" x2="-17606.75" y2="3164.87" xlink:href="#j"/>
    <linearGradient id="l" x1="-396.39" y1="-388.21" x2="-431.97" y2="-372.84" gradientTransform="translate(585.92 486.13) rotate(-4.92)" gradientUnits="userSpaceOnUse">
      <stop offset="0" stop-color="#ffcaa6"/>
      <stop offset="1" stop-color="#efa878"/>
    </linearGradient>
    <linearGradient id="m" x1="-430.28" y1="-389.69" x2="-474.32" y2="-379.48" xlink:href="#l"/>
    <linearGradient id="n" x1="-465.6" y1="-388.63" x2="-461.8" y2="-380.39" xlink:href="#l"/>
    <linearGradient id="o" x1="-454.87" y1="-375.45" x2="-451.47" y2="-369.44" xlink:href="#l"/>
    <linearGradient id="p" x1="-460.34" y1="-381.72" x2="-456.94" y2="-375.38" xlink:href="#l"/>
    <linearGradient id="q" x1="-450.03" y1="-367.45" x2="-447.02" y2="-362.62" xlink:href="#l"/>
    <linearGradient id="r" x1="-17610.35" y1="3074.5" x2="-17590.52" y2="3081.62" xlink:href="#j"/>
    <linearGradient id="s" x1="-17588.2" y1="3072.02" x2="-17608.06" y2="3072.12" xlink:href="#j"/>
    <linearGradient id="t" x1="-15958.11" y1="1376.61" x2="-15936.78" y2="1384.27" xlink:href="#h"/>
    <linearGradient id="u" x1="-15935.34" y1="1371.26" x2="-15955.2" y2="1371.36" xlink:href="#h"/>
    <linearGradient id="v" x1="-47.04" y1="34.97" x2="-101.61" y2="47.62" gradientTransform="translate(114.61 -2.6) skewX(.99)" gradientUnits="userSpaceOnUse">
      <stop offset="0" stop-color="#c8c8c8"/>
      <stop offset="1" stop-color="#8d8d8d"/>
    </linearGradient>
    <linearGradient id="w" x1="-47.62" y1="34" x2="-102.19" y2="46.66" gradientTransform="translate(114.61 -2.6) skewX(.99)" gradientUnits="userSpaceOnUse">
      <stop offset="0" stop-color="#e6e6e6"/>
      <stop offset="1" stop-color="#f9f9f9"/>
    </linearGradient>
  </defs>
  <g class="bw">
    <ellipse class="ai" cx="185.17" cy="199.37" rx="15.36" ry="38.42" transform="translate(-19.12 379.11) rotate(-88.46)"/>
    <ellipse class="aq" cx="185.17" cy="199.37" rx="14.97" ry="37.43" transform="translate(-19.12 379.11) rotate(-88.46)"/>
    <ellipse class="ad" cx="185.17" cy="199.37" rx="14.57" ry="36.44" transform="translate(-19.12 379.11) rotate(-88.46)"/>
    <ellipse class="am" cx="185.17" cy="199.37" rx="14.18" ry="35.45" transform="translate(-19.12 379.11) rotate(-88.46)"/>
    <ellipse class="az" cx="185.17" cy="199.37" rx="13.78" ry="34.46" transform="translate(-19.12 379.11) rotate(-88.46)"/>
    <ellipse class="as" cx="185.17" cy="199.37" rx="13.38" ry="33.47" transform="translate(-19.12 379.11) rotate(-88.46)"/>
    <ellipse class="y" cx="185.17" cy="199.37" rx="12.99" ry="32.48" transform="translate(-19.12 379.11) rotate(-88.46)"/>
    <ellipse class="ae" cx="185.17" cy="199.37" rx="12.59" ry="31.49" transform="translate(-19.12 379.11) rotate(-88.46)"/>
    <ellipse class="al" cx="185.17" cy="199.37" rx="12.2" ry="30.5" transform="translate(-19.12 379.11) rotate(-88.46)"/>
    <ellipse class="an" cx="185.17" cy="199.37" rx="11.8" ry="29.51" transform="translate(-19.12 379.11) rotate(-88.46)"/>
    <ellipse class="ab" cx="185.17" cy="199.37" rx="11.41" ry="28.52" transform="translate(-19.12 379.11) rotate(-88.46)"/>
    <ellipse class="ah" cx="185.17" cy="199.37" rx="11.01" ry="27.53" transform="translate(-19.12 379.11) rotate(-88.46)"/>
    <ellipse class="ag" cx="185.17" cy="199.37" rx="10.61" ry="26.54" transform="translate(-19.12 379.11) rotate(-88.46)"/>
    <ellipse class="ax" cx="185.17" cy="199.37" rx="10.22" ry="25.55" transform="translate(-19.12 379.11) rotate(-88.46)"/>
    <ellipse class="ac" cx="185.17" cy="199.37" rx="9.82" ry="24.56" transform="translate(-19.12 379.11) rotate(-88.46)"/>
    <ellipse class="au" cx="185.17" cy="199.37" rx="9.43" ry="23.57" transform="translate(-19.12 379.11) rotate(-88.46)"/>
    <ellipse class="ap" cx="185.17" cy="199.37" rx="9.03" ry="22.58" transform="translate(-19.12 379.11) rotate(-88.46)"/>
    <ellipse class="z" cx="185.17" cy="199.37" rx="8.64" ry="21.59" transform="translate(-19.12 379.11) rotate(-88.46)"/>
    <ellipse class="ar" cx="185.17" cy="199.37" rx="8.24" ry="20.6" transform="translate(-19.12 379.11) rotate(-88.46)"/>
    <ellipse class="af" cx="185.17" cy="199.37" rx="7.84" ry="19.62" transform="translate(-19.12 379.11) rotate(-88.46)"/>
    <ellipse class="x" cx="185.17" cy="199.37" rx="7.45" ry="18.63" transform="translate(-19.12 379.11) rotate(-88.46)"/>
    <ellipse class="ak" cx="185.17" cy="199.37" rx="7.05" ry="17.64" transform="translate(-19.12 379.11) rotate(-88.46)"/>
    <ellipse class="at" cx="185.17" cy="199.37" rx="6.66" ry="16.65" transform="translate(-19.12 379.11) rotate(-88.46)"/>
    <ellipse class="aw" cx="185.17" cy="199.37" rx="6.26" ry="15.66" transform="translate(-19.12 379.11) rotate(-88.46)"/>
    <ellipse class="av" cx="185.17" cy="199.37" rx="5.87" ry="14.67" transform="translate(-19.12 379.11) rotate(-88.46)"/>
    <ellipse class="aj" cx="185.17" cy="199.37" rx="5.47" ry="13.68" transform="translate(-19.12 379.11) rotate(-88.46)"/>
    <ellipse class="aa" cx="185.17" cy="199.37" rx="5.07" ry="12.69" transform="translate(-19.12 379.11) rotate(-88.46)"/>
  </g>
  <g class="bw">
    <ellipse class="ai" cx="142.56" cy="106.28" rx="15.36" ry="38.42" transform="translate(32.48 245.92) rotate(-88.46)"/>
    <ellipse class="aq" cx="142.56" cy="106.28" rx="14.97" ry="37.43" transform="translate(32.48 245.92) rotate(-88.46)"/>
    <ellipse class="ad" cx="142.56" cy="106.28" rx="14.57" ry="36.44" transform="translate(32.48 245.92) rotate(-88.46)"/>
    <ellipse class="am" cx="142.56" cy="106.28" rx="14.18" ry="35.45" transform="translate(32.48 245.92) rotate(-88.46)"/>
    <ellipse class="az" cx="142.56" cy="106.28" rx="13.78" ry="34.46" transform="translate(32.48 245.92) rotate(-88.46)"/>
    <ellipse class="as" cx="142.56" cy="106.28" rx="13.38" ry="33.47" transform="translate(32.48 245.92) rotate(-88.46)"/>
    <ellipse class="y" cx="142.56" cy="106.28" rx="12.99" ry="32.48" transform="translate(32.48 245.92) rotate(-88.46)"/>
    <ellipse class="ae" cx="142.56" cy="106.28" rx="12.59" ry="31.49" transform="translate(32.48 245.92) rotate(-88.46)"/>
    <ellipse class="al" cx="142.56" cy="106.28" rx="12.2" ry="30.5" transform="translate(32.48 245.92) rotate(-88.46)"/>
    <ellipse class="an" cx="142.56" cy="106.28" rx="11.8" ry="29.51" transform="translate(32.48 245.92) rotate(-88.46)"/>
    <ellipse class="ab" cx="142.56" cy="106.28" rx="11.41" ry="28.52" transform="translate(32.48 245.92) rotate(-88.46)"/>
    <ellipse class="ah" cx="142.56" cy="106.28" rx="11.01" ry="27.53" transform="translate(32.48 245.92) rotate(-88.46)"/>
    <ellipse class="ag" cx="142.56" cy="106.28" rx="10.61" ry="26.54" transform="translate(32.48 245.92) rotate(-88.46)"/>
    <ellipse class="ax" cx="142.56" cy="106.28" rx="10.22" ry="25.55" transform="translate(32.48 245.92) rotate(-88.46)"/>
    <ellipse class="ac" cx="142.56" cy="106.28" rx="9.82" ry="24.56" transform="translate(32.48 245.92) rotate(-88.46)"/>
    <ellipse class="au" cx="142.56" cy="106.28" rx="9.43" ry="23.57" transform="translate(32.48 245.92) rotate(-88.46)"/>
    <ellipse class="ap" cx="142.56" cy="106.28" rx="9.03" ry="22.58" transform="translate(32.48 245.92) rotate(-88.46)"/>
    <ellipse class="z" cx="142.56" cy="106.28" rx="8.64" ry="21.59" transform="translate(32.48 245.92) rotate(-88.46)"/>
    <ellipse class="ar" cx="142.56" cy="106.28" rx="8.24" ry="20.6" transform="translate(32.48 245.92) rotate(-88.46)"/>
    <ellipse class="af" cx="142.56" cy="106.28" rx="7.84" ry="19.62" transform="translate(32.48 245.92) rotate(-88.46)"/>
    <ellipse class="x" cx="142.56" cy="106.28" rx="7.45" ry="18.63" transform="translate(32.48 245.92) rotate(-88.46)"/>
    <ellipse class="ak" cx="142.56" cy="106.28" rx="7.05" ry="17.64" transform="translate(32.48 245.92) rotate(-88.46)"/>
    <ellipse class="at" cx="142.56" cy="106.28" rx="6.66" ry="16.65" transform="translate(32.48 245.92) rotate(-88.46)"/>
    <ellipse class="aw" cx="142.56" cy="106.28" rx="6.26" ry="15.66" transform="translate(32.48 245.92) rotate(-88.46)"/>
    <ellipse class="av" cx="142.56" cy="106.28" rx="5.87" ry="14.67" transform="translate(32.48 245.92) rotate(-88.46)"/>
    <ellipse class="aj" cx="142.56" cy="106.28" rx="5.47" ry="13.68" transform="translate(32.48 245.92) rotate(-88.46)"/>
    <ellipse class="aa" cx="142.56" cy="106.28" rx="5.07" ry="12.69" transform="translate(32.48 245.92) rotate(-88.46)"/>
  </g>
  <g class="bw">
    <ellipse class="ai" cx="38.41" cy="74.35" rx="15.36" ry="38.42" transform="translate(-36.95 110.74) rotate(-88.46)"/>
    <ellipse class="aq" cx="38.41" cy="74.35" rx="14.97" ry="37.43" transform="translate(-36.95 110.74) rotate(-88.46)"/>
    <ellipse class="ad" cx="38.41" cy="74.35" rx="14.57" ry="36.44" transform="translate(-36.95 110.74) rotate(-88.46)"/>
    <ellipse class="am" cx="38.41" cy="74.35" rx="14.18" ry="35.45" transform="translate(-36.95 110.74) rotate(-88.46)"/>
    <ellipse class="az" cx="38.41" cy="74.35" rx="13.78" ry="34.46" transform="translate(-36.95 110.74) rotate(-88.46)"/>
    <ellipse class="as" cx="38.41" cy="74.35" rx="13.38" ry="33.47" transform="translate(-36.95 110.74) rotate(-88.46)"/>
    <ellipse class="y" cx="38.41" cy="74.35" rx="12.99" ry="32.48" transform="translate(-36.95 110.74) rotate(-88.46)"/>
    <ellipse class="ae" cx="38.41" cy="74.35" rx="12.59" ry="31.49" transform="translate(-36.95 110.74) rotate(-88.46)"/>
    <ellipse class="al" cx="38.41" cy="74.35" rx="12.2" ry="30.5" transform="translate(-36.95 110.74) rotate(-88.46)"/>
    <ellipse class="an" cx="38.41" cy="74.35" rx="11.8" ry="29.51" transform="translate(-36.95 110.74) rotate(-88.46)"/>
    <ellipse class="ab" cx="38.41" cy="74.35" rx="11.41" ry="28.52" transform="translate(-36.95 110.74) rotate(-88.46)"/>
    <ellipse class="ah" cx="38.41" cy="74.35" rx="11.01" ry="27.53" transform="translate(-36.95 110.74) rotate(-88.46)"/>
    <ellipse class="ag" cx="38.41" cy="74.35" rx="10.61" ry="26.54" transform="translate(-36.95 110.74) rotate(-88.46)"/>
    <ellipse class="ax" cx="38.41" cy="74.35" rx="10.22" ry="25.55" transform="translate(-36.95 110.74) rotate(-88.46)"/>
    <ellipse class="ac" cx="38.41" cy="74.35" rx="9.82" ry="24.56" transform="translate(-36.95 110.74) rotate(-88.46)"/>
    <ellipse class="au" cx="38.41" cy="74.35" rx="9.43" ry="23.57" transform="translate(-36.95 110.74) rotate(-88.46)"/>
    <ellipse class="ap" cx="38.41" cy="74.35" rx="9.03" ry="22.58" transform="translate(-36.95 110.74) rotate(-88.46)"/>
    <ellipse class="z" cx="38.41" cy="74.35" rx="8.64" ry="21.59" transform="translate(-36.95 110.74) rotate(-88.46)"/>
    <ellipse class="ar" cx="38.41" cy="74.35" rx="8.24" ry="20.6" transform="translate(-36.95 110.74) rotate(-88.46)"/>
    <ellipse class="af" cx="38.41" cy="74.35" rx="7.84" ry="19.62" transform="translate(-36.95 110.74) rotate(-88.46)"/>
    <ellipse class="x" cx="38.41" cy="74.35" rx="7.45" ry="18.63" transform="translate(-36.95 110.74) rotate(-88.46)"/>
    <ellipse class="ak" cx="38.41" cy="74.35" rx="7.05" ry="17.64" transform="translate(-36.95 110.74) rotate(-88.46)"/>
    <ellipse class="at" cx="38.41" cy="74.35" rx="6.66" ry="16.65" transform="translate(-36.95 110.74) rotate(-88.46)"/>
    <ellipse class="aw" cx="38.41" cy="74.35" rx="6.26" ry="15.66" transform="translate(-36.95 110.74) rotate(-88.46)"/>
    <ellipse class="av" cx="38.41" cy="74.35" rx="5.87" ry="14.67" transform="translate(-36.95 110.74) rotate(-88.46)"/>
    <ellipse class="aj" cx="38.41" cy="74.35" rx="5.47" ry="13.68" transform="translate(-36.95 110.74) rotate(-88.46)"/>
    <ellipse class="aa" cx="38.41" cy="74.35" rx="5.07" ry="12.69" transform="translate(-36.95 110.74) rotate(-88.46)"/>
  </g>
  <g class="bw">
    <ellipse class="ai" cx="40.88" cy="162.86" rx="15.36" ry="38.42" transform="translate(-123.02 199.35) rotate(-88.46)"/>
    <ellipse class="aq" cx="40.88" cy="162.86" rx="14.97" ry="37.43" transform="translate(-123.02 199.35) rotate(-88.46)"/>
    <ellipse class="ad" cx="40.88" cy="162.86" rx="14.57" ry="36.44" transform="translate(-123.02 199.35) rotate(-88.46)"/>
    <ellipse class="am" cx="40.88" cy="162.86" rx="14.18" ry="35.45" transform="translate(-123.02 199.35) rotate(-88.46)"/>
    <ellipse class="az" cx="40.88" cy="162.86" rx="13.78" ry="34.46" transform="translate(-123.02 199.35) rotate(-88.46)"/>
    <ellipse class="as" cx="40.88" cy="162.86" rx="13.38" ry="33.47" transform="translate(-123.02 199.35) rotate(-88.46)"/>
    <ellipse class="y" cx="40.88" cy="162.86" rx="12.99" ry="32.48" transform="translate(-123.02 199.35) rotate(-88.46)"/>
    <ellipse class="ae" cx="40.88" cy="162.86" rx="12.59" ry="31.49" transform="translate(-123.02 199.35) rotate(-88.46)"/>
    <ellipse class="al" cx="40.88" cy="162.86" rx="12.2" ry="30.5" transform="translate(-123.02 199.35) rotate(-88.46)"/>
    <ellipse class="an" cx="40.88" cy="162.86" rx="11.8" ry="29.51" transform="translate(-123.02 199.35) rotate(-88.46)"/>
    <ellipse class="ab" cx="40.88" cy="162.86" rx="11.41" ry="28.52" transform="translate(-123.02 199.35) rotate(-88.46)"/>
    <ellipse class="ah" cx="40.88" cy="162.86" rx="11.01" ry="27.53" transform="translate(-123.02 199.35) rotate(-88.46)"/>
    <ellipse class="ag" cx="40.88" cy="162.86" rx="10.61" ry="26.54" transform="translate(-123.02 199.35) rotate(-88.46)"/>
    <ellipse class="ax" cx="40.88" cy="162.86" rx="10.22" ry="25.55" transform="translate(-123.02 199.35) rotate(-88.46)"/>
    <ellipse class="ac" cx="40.88" cy="162.86" rx="9.82" ry="24.56" transform="translate(-123.02 199.35) rotate(-88.46)"/>
    <ellipse class="au" cx="40.88" cy="162.86" rx="9.43" ry="23.57" transform="translate(-123.02 199.35) rotate(-88.46)"/>
    <ellipse class="ap" cx="40.88" cy="162.86" rx="9.03" ry="22.58" transform="translate(-123.02 199.35) rotate(-88.46)"/>
    <ellipse class="z" cx="40.88" cy="162.86" rx="8.64" ry="21.59" transform="translate(-123.02 199.35) rotate(-88.46)"/>
    <ellipse class="ar" cx="40.88" cy="162.86" rx="8.24" ry="20.6" transform="translate(-123.02 199.35) rotate(-88.46)"/>
    <ellipse class="af" cx="40.88" cy="162.86" rx="7.84" ry="19.62" transform="translate(-123.02 199.35) rotate(-88.46)"/>
    <ellipse class="x" cx="40.88" cy="162.86" rx="7.45" ry="18.63" transform="translate(-123.02 199.35) rotate(-88.46)"/>
    <ellipse class="ak" cx="40.89" cy="162.86" rx="7.05" ry="17.64" transform="translate(-123.02 199.35) rotate(-88.46)"/>
    <ellipse class="at" cx="40.89" cy="162.86" rx="6.66" ry="16.65" transform="translate(-123.02 199.35) rotate(-88.46)"/>
    <ellipse class="aw" cx="40.89" cy="162.86" rx="6.26" ry="15.66" transform="translate(-123.02 199.35) rotate(-88.46)"/>
    <ellipse class="av" cx="40.89" cy="162.86" rx="5.87" ry="14.67" transform="translate(-123.02 199.35) rotate(-88.46)"/>
    <ellipse class="aj" cx="40.89" cy="162.86" rx="5.47" ry="13.68" transform="translate(-123.02 199.35) rotate(-88.46)"/>
    <ellipse class="aa" cx="40.89" cy="162.86" rx="5.07" ry="12.69" transform="translate(-123.02 199.35) rotate(-88.46)"/>
  </g>
  <g class="bw">
    <ellipse class="ai" cx="232.24" cy="124.35" rx="12.52" ry="31.31" transform="translate(101.69 353.16) rotate(-88.46)"/>
    <ellipse class="aq" cx="232.24" cy="124.35" rx="12.2" ry="30.51" transform="translate(101.69 353.16) rotate(-88.46)"/>
    <ellipse class="ad" cx="232.24" cy="124.35" rx="11.88" ry="29.7" transform="translate(101.69 353.16) rotate(-88.46)"/>
    <ellipse class="am" cx="232.24" cy="124.35" rx="11.55" ry="28.89" transform="translate(101.69 353.16) rotate(-88.46)"/>
    <ellipse class="az" cx="232.24" cy="124.35" rx="11.23" ry="28.09" transform="translate(101.69 353.16) rotate(-88.46)"/>
    <ellipse class="as" cx="232.24" cy="124.35" rx="10.91" ry="27.28" transform="translate(101.69 353.16) rotate(-88.46)"/>
    <ellipse class="y" cx="232.24" cy="124.35" rx="10.59" ry="26.47" transform="translate(101.69 353.16) rotate(-88.46)"/>
    <ellipse class="ae" cx="232.24" cy="124.35" rx="10.26" ry="25.67" transform="translate(101.69 353.16) rotate(-88.46)"/>
    <ellipse class="al" cx="232.24" cy="124.35" rx="9.94" ry="24.86" transform="translate(101.69 353.16) rotate(-88.46)"/>
    <ellipse class="an" cx="232.24" cy="124.35" rx="9.62" ry="24.05" transform="translate(101.69 353.16) rotate(-88.46)"/>
    <ellipse class="ab" cx="232.24" cy="124.35" rx="9.3" ry="23.25" transform="translate(101.69 353.16) rotate(-88.46)"/>
    <ellipse class="ah" cx="232.24" cy="124.35" rx="8.97" ry="22.44" transform="translate(101.69 353.16) rotate(-88.46)"/>
    <ellipse class="ag" cx="232.24" cy="124.35" rx="8.65" ry="21.63" transform="translate(101.69 353.16) rotate(-88.46)"/>
    <ellipse class="ax" cx="232.24" cy="124.35" rx="8.33" ry="20.83" transform="translate(101.69 353.16) rotate(-88.46)"/>
    <ellipse class="ac" cx="232.24" cy="124.35" rx="8.01" ry="20.02" transform="translate(101.69 353.16) rotate(-88.46)"/>
    <ellipse class="au" cx="232.24" cy="124.35" rx="7.68" ry="19.21" transform="translate(101.69 353.16) rotate(-88.46)"/>
    <ellipse class="ap" cx="232.24" cy="124.35" rx="7.36" ry="18.41" transform="translate(101.69 353.16) rotate(-88.46)"/>
    <ellipse class="z" cx="232.24" cy="124.35" rx="7.04" ry="17.6" transform="translate(101.69 353.16) rotate(-88.46)"/>
    <ellipse class="ar" cx="232.24" cy="124.35" rx="6.72" ry="16.79" transform="translate(101.69 353.16) rotate(-88.46)"/>
    <ellipse class="af" cx="232.24" cy="124.35" rx="6.39" ry="15.99" transform="translate(101.69 353.16) rotate(-88.46)"/>
    <ellipse class="x" cx="232.24" cy="124.35" rx="6.07" ry="15.18" transform="translate(101.69 353.16) rotate(-88.46)"/>
    <ellipse class="ak" cx="232.24" cy="124.35" rx="5.75" ry="14.37" transform="translate(101.68 353.16) rotate(-88.46)"/>
    <ellipse class="at" cx="232.24" cy="124.35" rx="5.43" ry="13.57" transform="translate(101.68 353.16) rotate(-88.46)"/>
    <ellipse class="aw" cx="232.24" cy="124.35" rx="5.1" ry="12.76" transform="translate(101.68 353.16) rotate(-88.46)"/>
    <ellipse class="av" cx="232.24" cy="124.35" rx="4.78" ry="11.95" transform="translate(101.68 353.16) rotate(-88.46)"/>
    <ellipse class="aj" cx="232.24" cy="124.35" rx="4.46" ry="11.15" transform="translate(101.68 353.16) rotate(-88.46)"/>
    <ellipse class="aa" cx="232.24" cy="124.35" rx="4.14" ry="10.34" transform="translate(101.68 353.16) rotate(-88.46)"/>
  </g>
  <g>
    <path class="ba" d="M152.31,23.84l-22.7,68.89c-1.35,4.09-5.73,6.35-9.84,5.07l-20.22-6.29c-2.53,1.73-4.86,3.98-2.89,5.58,3.62,2.92,6.68,11.55-9.45,7.79-16.13-3.76-11.29-10.86-3.5-12.39,3.43-.67,5.2-2.35,6.08-4.01l-15.55-4.84c-3.06-.95-4.78-4.19-3.86-7.26l18.54-61.78c1.16-3.88,5.01-6.31,9.01-5.69l11.15-.48,2.32,2.56c-2.2,1.99-4.77,9.83.92,11.81,12.85,4.47,15.66-8.23,14.74-9.39l20.81,3.21c3.4.52,5.51,3.97,4.43,7.23Z"/>
    <path class="bc" d="M149.99,21.28l-22.7,68.89c-1.35,4.09-5.73,6.35-9.84,5.07l-20.22-6.29c-2.53,1.73-4.86,3.98-2.89,5.58,3.62,2.92,6.68,11.55-9.45,7.79-16.13-3.76-11.29-10.86-3.5-12.39,3.43-.67,5.2-2.35,6.08-4.01l-15.55-4.84c-3.06-.95-4.78-4.19-3.86-7.26l18.54-61.78c1.16-3.88,5.01-6.31,9.01-5.69l13.48,2.08c-2.2,1.99-4.77,9.83.92,11.81,12.85,4.47,15.66-8.23,14.74-9.39l20.81,3.21c3.4.52,5.51,3.97,4.43,7.23Z"/>
  </g>
  <g>
    <path class="bi" d="M218.86,24.78l-24.6-2c3.98-5.62,10.86-4.4,15.93-8.59,6.06-5.01-1.6-10.51-14.8-12.64-13.2-2.13-18.8,5.59-14.7,10.14,2.82,3.14.46,6.81-1.29,8.8l-13.47-2.08c-3.84-.59-7.56,1.66-8.82,5.34l-9.16,26.87c-.73,2.16-3.14,3.4-5.24,2.51-.14-.06-.27-.12-.41-.2-4.35-2.43-6.4-7.8-13.69-7.29-7.29.51-15.8,10.1-5.89,17.78,6.11,4.74,11.77-2.81,17.14,1.66.01,0,.02.02.03.03,1.49,1.25,1.97,3.34,1.34,5.18l-11.08,24.55c-.96,2.82,2.85,7.21,5.7,8.1l50.98,15.86c3.87,1.21,8.01-.88,9.34-4.71l9.38-26.9c-.5-.65-1.68-2.53-2.32-2.56-12.4-.45-9.55-7.84-5.74-15.35,4.48-8.81,11.14-4.02,14.52-.63l12.18-34.94c1.08-3.11-2.11-8.42-5.36-8.92Z"/>
    <path class="bd" d="M217.73,24.2l-25.78-3.98c3.98-5.62,10.86-4.4,15.93-8.59,6.06-5.01-1.96-8.42-15.16-10.55-13.2-2.13-18.43,3.5-14.34,8.05,2.82,3.14.46,6.81-1.29,8.8l-13.47-2.08c-3.84-.59-7.56,1.66-8.82,5.34l-9.16,26.87c-.73,2.16-3.14,3.4-5.24,2.51-.14-.06-.27-.12-.41-.2-4.35-2.43-6.4-7.8-13.69-7.29-7.29.51-11.9,12.92-5.89,17.78,6.01,4.86,11.77-2.81,17.14,1.66.01,0,.02.02.03.03,1.49,1.25,1.97,3.34,1.34,5.18l-8.82,25.88c-.96,2.82.59,5.88,3.44,6.77l50.98,15.86c3.87,1.21,8.01-.88,9.34-4.71l9.38-26.9c-14.74.61-12.08-10-8.06-17.9,4.48-8.81,11.14-4.02,14.52-.63l12.18-34.94c1.08-3.11-.92-6.44-4.17-6.95Z"/>
  </g>
  <g>
    <g>
      <path class="bh" d="M228.87,110.98c12,3.61,25.73-3.95,30.67-16.89,4.93-12.94-.8-26.35-12.8-29.96-12-3.61-25.73,3.95-30.67,16.89-4.93,12.94.8,26.35,12.8,29.96Z"/>
      <path class="bq" d="M227.09,108.64c12,3.61,25.73-3.95,30.67-16.89,4.93-12.94-.8-26.35-12.8-29.96-12-3.61-25.73,3.95-30.67,16.89-4.93,12.94.8,26.35,12.8,29.96Z"/>
    </g>
    <polygon class="ay" points="224.59 78.92 230.58 95.79 251.19 86.8 249.07 81.95 233.83 88.8 228.96 76.55 224.59 78.92"/>
  </g>
  <g>
    <g>
      <g>
        <path class="bo" d="M41.32,86.39c-.18-.06-.38-.09-.57-.09-.16-.12-.33-.22-.51-.28-3.46-1.18-9.89,8.7-14.37,22.06-4.48,13.36-5.31,25.15-1.85,26.33.26.09.8.4,1.09.37l23.17,7.89.18-.54c-3.46-1.18-2.67-12.84,1.76-26.06,4.43-13.21,10.82-22.96,14.28-21.79l-23.17-7.89Z"/>
        <path class="bn" d="M64.12,94.15c-3.46-1.18-9.89,8.7-14.37,22.06-4.48,13.36-5.31,25.15-1.85,26.33,3.46,1.18,9.89-8.7,14.37-22.06,4.48-13.36,5.3-25.14,1.84-26.32Z"/>
      </g>
      <g>
        <path class="bk" d="M66.03,100.67c-.15-.05-.31-.07-.48-.07-.13-.1-.27-.18-.43-.23-2.89-.97-8.25,7.26-11.98,18.37-3.72,11.12-4.4,20.92-1.51,21.89.22.07.67.33.91.31l12.2,3.66.15-.45c-2.89-.97-2.25-10.67,1.43-21.67,3.68-11,9.01-19.12,11.9-18.15l-12.2-3.66Z"/>
        <path class="bt" d="M77.91,104.22c-2.89-.97-8.25,7.25-11.98,18.37s-4.4,20.92-1.51,21.89c2.89.97,8.26-7.26,11.98-18.38,3.72-11.12,4.4-20.92,1.5-21.89Z"/>
      </g>
    </g>
    <path class="bv" d="M171.94,142.82s-31.18-26.94-37.81-27.46c-4.8-.38-19.92-2.26-27.9-3.27-3.17-.4-5.81,2.45-5.13,5.57.52,2.39,1.9,4.66,5.2,5.13,7.47,1.08,14.27,2.05,14.27,2.05,0,0,16.38,37.81,16.44,41.25s-1.1,4.49-1.1,4.49c0,0,6.01,4.19,15.48,4.94,9.48.75,17.96.96,18.76,1.05.79.09,1.8-33.75,1.8-33.75Z"/>
    <path class="bp" d="M105.24,111.96l7.53.95s3.26,7.94,10.93,13.56c7.67,5.63,12.11-.14,12.11-.14l-9.77-11.13s-4.19-6.67-9.35-8.32c-5.16-1.65-16.38.47-23.71,2.26-7.34,1.79-15.7.7-15.7.7-12.37,12.58-9.39,28.93-9.39,28.93,0,0,4.73,1.09,8.41,2.12,3.68,1.03,5.04,2.72,13.09,9.22.63.51,1.4.9,2.3,1.2h0s10.42,16.86,15.52,17.45c3.91.45,4.89-1.01,3.67-3.76,1.95,1.96,3.83,3.4,5.26,3.63,5.17.82,4.32-.32,1.9-5.26,0,0,0,0,0-.01,2.76,4.19,5.85,7.7,8.33,7.52,4.52-.34,3.12-3.92,1.22-7.53,2.33,4.19,7.12,7.21,8.34,7.25,3.19.09,4.75-2.44,3.09-7.18-1.65-4.74-10.05-19.17-10.05-19.17l-.19.07-8.19-19.46s-2.63-.26-8.93-1.11c-3.87-.52-6.93-5.03-8.72-8.43-.86-1.64.49-3.56,2.32-3.33ZM125.7,159.86s-.01-.03-.02-.04c.21.4.42.8.63,1.2-.21-.39-.42-.78-.6-1.15Z"/>
    <path class="bu" d="M99.92,141.97h0s-12.73,8.14-12.73,8.14c0,0-1.98.15-4.31-1.07-2.33-1.22-3.42-6.8-2.23-7.16,0,0,15.38-7.34,18.21-5.88,2.77,1.43,1.13,5.8,1.07,5.97Z"/>
    <path class="br" d="M111.42,154.53l-11.57,8.21s-2.38.85-5.5-1.98c-3.12-2.83-2.01-4.33-2.01-4.33l13.18-8.54.04-.02.06-.04c.66-.37,4.01-2.04,6.35.64,2.61,2.97-.54,6.04-.54,6.04Z"/>
    <path class="bs" d="M105.52,147.9l-13.18,8.54s-1.21-.46-3.8-1.81c-2.6-1.34-1.35-4.51-1.35-4.51l12.73-8.14h0c.16-.11,2.58-1.59,5.3.62,2.57,2.08.47,5.05.29,5.31Z"/>
    <path class="bl" d="M115,161.97c-3.71,3.35-9.98,7.13-13.38,6.24-3.39-.88-1.77-5.47-1.77-5.47l11.57-8.21s2.86-.86,4.63.94c2.39,2.46,2.01,3.75-1.05,6.51Z"/>
    <g>
      <g>
        <path class="bm" d="M172.97,138.54c-.15-.05-.31-.07-.48-.07-.13-.1-.27-.18-.43-.23-2.89-.97-8.25,7.26-11.98,18.37-3.72,11.12-4.4,20.92-1.51,21.89.22.07.67.33.91.31l12.2,3.66.15-.45c-2.89-.97-2.25-10.67,1.43-21.67,3.68-11,9.01-19.12,11.9-18.15l-12.2-3.66Z"/>
        <path class="bj" d="M184.85,142.09c-2.89-.97-8.25,7.25-11.98,18.37-3.72,11.12-4.4,20.92-1.51,21.89,2.89.97,8.26-7.26,11.98-18.38,3.72-11.12,4.4-20.92,1.5-21.89Z"/>
      </g>
      <g>
        <path class="bg" d="M188.48,138.78c-.18-.06-.38-.09-.57-.09-.16-.12-.33-.22-.51-.28-3.46-1.18-9.89,8.7-14.37,22.06-4.48,13.36-5.31,25.15-1.85,26.33.26.09.8.4,1.09.37l23.17,7.89.18-.54c-3.46-1.18-2.67-12.84,1.76-26.06,4.43-13.21,10.82-22.96,14.28-21.79l-23.17-7.89Z"/>
        <path class="bf" d="M211.27,146.54c-3.46-1.18-9.89,8.7-14.37,22.06-4.48,13.36-5.31,25.15-1.85,26.33,3.46,1.18,9.89-8.7,14.37-22.06,4.48-13.36,5.3-25.14,1.84-26.32Z"/>
      </g>
    </g>
  </g>
  <g>
    <g>
      <path class="bb" d="M31.02,1l45.66,5.19c2.55.29,4.23,2.85,3.46,5.28l-18.97,60.23c-.8,2.53-3.36,4.04-5.99,3.52l-45.46-8.96c-2.36-.46-3.8-2.9-3.05-5.16L25.28,4.66c.8-2.43,3.19-3.95,5.74-3.65Z"/>
      <path class="be" d="M30.43.04l45.66,5.19c2.55.29,4.23,2.85,3.46,5.28l-18.97,60.23c-.8,2.53-3.36,4.04-5.99,3.52l-45.46-8.96c-2.36-.46-3.8-2.9-3.05-5.16L24.68,3.69c.8-2.43,3.19-3.95,5.74-3.65Z"/>
    </g>
    <g>
      <path class="ao" d="M28.35,21.2l-.62-9.67,1.29.06.22,4.89c.06,1.2.09,2.41.09,3.34h.03c.33-.94.84-2.06,1.39-3.28l2.16-4.76,1.28.06.25,4.91c.06,1.15.1,2.29.05,3.31h.03c.39-1.04.86-2.09,1.37-3.26l2.15-4.76,1.25.06-4.46,9.42-1.28-.06-.27-5.04c-.07-1.23-.09-2.18-.04-3.15h-.03c-.35.94-.73,1.86-1.31,3.08l-2.28,4.91-1.28-.06Z"/>
      <g>
        <path class="ao" d="M69.27,16.47l-26.86-3.46c-.33-.04-.53-.36-.44-.71h0c.09-.35.44-.6.77-.56l26.86,3.46c.33.04.53.36.44.71h0c-.09.35-.44.6-.77.56Z"/>
        <path class="ao" d="M68.36,19.95l-26.86-3.46c-.33-.04-.53-.36-.44-.71h0c.09-.35.44-.6.77-.56l26.86,3.46c.33.04.53.36.44.71h0c-.09.35-.44.6-.77.56Z"/>
        <path class="ao" d="M67.45,23.42l-26.86-3.46c-.33-.04-.53-.36-.44-.71h0c.09-.35.44-.6.77-.56l26.86,3.46c.33.04.53.36.44.71h0c-.09.35-.44.6-.77.56Z"/>
        <path class="ao" d="M66.55,26.9l-26.86-3.46c-.33-.04-.53-.36-.44-.71h0c.09-.35.44-.6.77-.56l26.86,3.46c.33.04.53.36.44.71h0c-.09.35-.44.6-.77.56Z"/>
        <path class="ao" d="M65.64,30.38l-40.06-5.22c-.33-.04-.53-.36-.44-.71h0c.09-.35.44-.6.77-.56l40.06,5.22c.33.04.53.36.44.71h0c-.09.35-.44.6-.77.56Z"/>
        <path class="ao" d="M64.73,33.85l-40.06-5.22c-.33-.04-.53-.36-.44-.71h0c.09-.35.44-.6.77-.56l40.06,5.22c.33.04.53.36.44.71h0c-.09.35-.44.6-.77.56Z"/>
        <path class="ao" d="M63.83,37.33l-40.06-5.22c-.33-.04-.53-.36-.44-.71h0c.09-.35.44-.6.77-.56l40.06,5.22c.33.04.53.36.44.71h0c-.09.35-.44.6-.77.56Z"/>
        <path class="ao" d="M61.76,48.47l-40.28-6.69c-.34-.06-.54-.39-.44-.74h0c.09-.35.44-.59.78-.54l40.28,6.69c.34.06.54.39.44.74h0c-.09.35-.44.59-.78.54Z"/>
        <path class="ao" d="M60.86,51.95l-40.28-6.69c-.34-.06-.54-.39-.44-.74h0c.09-.35.44-.59.78-.54l40.28,6.69c.34.06.54.39.44.74h0c-.09.35-.44.59-.78.54Z"/>
        <path class="ao" d="M59.95,55.42l-40.28-6.69c-.34-.06-.54-.39-.44-.74h0c.09-.35.44-.59.78-.54l40.28,6.69c.34.06.54.39.44.74h0c-.09.35-.44.59-.78.54Z"/>
        <path class="ao" d="M58.14,59.45l-41.15-7.67c-.34-.06-.52-.37-.39-.67h0c.13-.31.51-.51.86-.44l41.15,7.67c.34.06.52.37.39.67h0c-.13.31-.51.51-.86.44Z"/>
        <path class="ao" d="M56.86,62.5l-41.15-7.67c-.34-.06-.52-.37-.39-.67h0c.13-.31.51-.51.86-.44l41.15,7.67c.34.06.52.37.39.67h0c-.13.31-.51.51-.86.44Z"/>
        <path class="ao" d="M55.58,65.56l-41.15-7.67c-.34-.06-.52-.37-.39-.67h0c.13-.31.51-.51.86-.44l41.15,7.67c.34.06.52.37.39.67h0c-.13.31-.51.51-.86.44Z"/>
      </g>
    </g>
  </g>
</svg>